<svg xmlns="http://www.w3.org/2000/svg" width="13.071" height="13.071" viewBox="0 0 13.071 13.071">
  <path id="_001-curve-arrow" data-name="001-curve-arrow" d="M3.673,13.57a1.021,1.021,0,0,1-.722-.3l-2.5-2.5a1.533,1.533,0,0,1,0-2.17l2.5-2.5A1.023,1.023,0,0,1,4.7,6.833V9.18A7.361,7.361,0,0,0,12.05,1.827V1.01a.511.511,0,1,1,1.021,0v.817a8.319,8.319,0,0,1-2.453,5.921A8.319,8.319,0,0,1,4.7,10.2,1.022,1.022,0,0,1,3.676,9.18V6.833h0l-2.5,2.5a.511.511,0,0,0,0,.724l2.5,2.5h0v-.56a.511.511,0,0,1,1.021,0v.56A1.025,1.025,0,0,1,3.673,13.57Zm0,0" transform="translate(-0.5 13.071) rotate(-90)" fill="#707070"/>
</svg>
