<?xml version="1.0" encoding="utf-8"?>
<!-- Generator: Adobe Illustrator 23.0.2, SVG Export Plug-In . SVG Version: 6.00 Build 0)  -->
<svg version="1.1" id="Layer_1" xmlns="http://www.w3.org/2000/svg" xmlns:xlink="http://www.w3.org/1999/xlink" x="0px" y="0px"
	 viewBox="0 0 50 50" style="enable-background:new 0 0 50 50;" xml:space="preserve">
<g>
	<path d="M25,2c0.7,0,1.3,0.3,1.8,0.8l20.4,20.4c1,1,1,2.7,0,3.7c-0.5,0.5-1.1,0.8-1.8,0.8h-0.8c-1.1,0-2,0.9-2,2v15
		c0,1.9-1.5,3.4-3.4,3.4h-7.4V36.8c0-2.5-2-4.5-4.5-4.5h-4.7c-2.5,0-4.5,2-4.5,4.5V48h-7.4c-1.9,0-3.4-1.5-3.4-3.4v-15
		c0-1.1-0.9-2-2-2H4.5c0,0-0.1,0-0.1,0c-0.7,0-1.3-0.3-1.7-0.8c-1-1-1-2.7,0-3.7L23.1,2.8C23.6,2.3,24.3,2,25,2 M25,0
		c-1.2,0-2.4,0.5-3.3,1.3L1.3,21.7c0,0,0,0,0,0c-1.8,1.8-1.8,4.7,0,6.5c0.8,0.8,1.9,1.3,3.1,1.3c0,0,0.1,0,0.1,0h0.8v15
		c0,3,2.4,5.4,5.4,5.4h8c0.8,0,1.5-0.7,1.5-1.5V36.8c0-1.4,1.1-2.5,2.5-2.5h4.7c1.4,0,2.5,1.1,2.5,2.5v11.8c0,0.8,0.7,1.5,1.5,1.5h8
		c3,0,5.4-2.4,5.4-5.4v-15h0.8c1.2,0,2.4-0.5,3.3-1.3c1.8-1.8,1.8-4.7,0-6.5c0,0,0,0,0,0L28.2,1.3C27.4,0.5,26.2,0,25,0L25,0z"/>
</g>
</svg>
