<svg xmlns="http://www.w3.org/2000/svg" width="17.257" height="24" viewBox="0 0 17.257 24">
  <g id="Сгруппировать_269" data-name="Сгруппировать 269" transform="translate(-169.5 -1229.5)">
    <g id="Icon_awesome-question-circle" data-name="Icon awesome-question-circle" transform="translate(169.438 1229.438)" fill="none" stroke-linecap="round" stroke-linejoin="round">
      <path d="M16.563,8.563a8,8,0,1,1-8-8A8,8,0,0,1,16.563,8.563ZM8.777,3.208a4.178,4.178,0,0,0-3.76,2.057.388.388,0,0,0,.088.524l1.119.849a.387.387,0,0,0,.538-.068c.576-.731.971-1.155,1.848-1.155.659,0,1.474.424,1.474,1.063,0,.483-.4.731-1.049,1.1C8.276,8,7.272,8.528,7.272,9.853v.129a.387.387,0,0,0,.387.387H9.466a.387.387,0,0,0,.387-.387V9.939c0-.918,2.683-.956,2.683-3.441C12.536,4.627,10.6,3.208,8.777,3.208Zm-.215,8a1.484,1.484,0,1,0,1.484,1.484A1.486,1.486,0,0,0,8.563,11.208Z" stroke="none"/>
      <path d="M 8.5625 0.5625 C 4.144530296325684 0.5625 0.5625 4.145819664001465 0.5625 8.5625 C 0.5625 12.98176002502441 4.144530296325684 16.5625 8.5625 16.5625 C 12.98047065734863 16.5625 16.5625 12.98176002502441 16.5625 8.5625 C 16.5625 4.145819664001465 12.98047065734863 0.5625 8.5625 0.5625 M 9.465730667114258 10.36894989013672 L 7.659270286560059 10.36894989013672 C 7.445500373840332 10.36894989013672 7.27217960357666 10.19563007354736 7.27217960357666 9.981860160827637 L 7.27217960357666 9.852819442749023 C 7.27217960357666 8.528340339660645 8.276309967041016 7.998889923095703 9.035149574279785 7.57349967956543 C 9.685819625854492 7.20868968963623 10.08463001251221 6.960599899291992 10.08463001251221 6.477499961853027 C 10.08463001251221 5.838470458984375 9.269499778747559 5.414340019226074 8.610500335693359 5.414340019226074 C 7.733400344848633 5.414340019226074 7.33827018737793 5.838179588317871 6.762020111083984 6.569080352783203 C 6.685863494873047 6.665687561035156 6.572647094726563 6.716217994689941 6.45817756652832 6.716217994689941 C 6.376571655273438 6.716217994689941 6.294320106506348 6.690525054931641 6.22443962097168 6.637530326843262 L 5.105110168457031 5.788820266723633 C 4.941630363464355 5.664850234985352 4.903470039367676 5.434889793395996 5.01753044128418 5.264369964599609 C 5.897979736328125 3.948209762573242 7.019209861755371 3.207659721374512 8.777179718017578 3.207659721374512 C 10.59543991088867 3.207659721374512 12.53623962402344 4.626950263977051 12.53623962402344 6.497980117797852 C 12.53623962402344 8.982500076293945 9.852819442749023 9.020730018615723 9.852819442749023 9.938859939575195 L 9.852819442749023 9.981860160827637 C 9.852819442749023 10.19563007354736 9.679500579833984 10.36894989013672 9.465730667114258 10.36894989013672 M 8.5625 14.17539978027344 C 7.744270324707031 14.17539978027344 7.078630447387695 13.50973033905029 7.078630447387695 12.69153022766113 C 7.078630447387695 11.87331008911133 7.744270324707031 11.20766067504883 8.5625 11.20766067504883 C 9.380729675292969 11.20766067504883 10.0463695526123 11.87331008911133 10.0463695526123 12.69153022766113 C 10.0463695526123 13.50973033905029 9.380729675292969 14.17539978027344 8.5625 14.17539978027344 M 8.5625 0.0625 C 13.24942016601563 0.0625 17.0625 3.875579833984375 17.0625 8.5625 C 17.0625 13.24942016601563 13.24942016601563 17.0625 8.5625 17.0625 C 3.875579833984375 17.0625 0.0625 13.24942016601563 0.0625 8.5625 C 0.0625 3.875579833984375 3.875579833984375 0.0625 8.5625 0.0625 Z M 9.355149269104004 9.868949890136719 C 9.394913673400879 9.278661727905273 9.937854766845703 8.965388298034668 10.46356010437012 8.662010192871094 C 11.23674011230469 8.2158203125 12.03623962402344 7.754440307617188 12.03623962402344 6.497980117797852 C 12.03623962402344 4.900959968566895 10.3156099319458 3.707659721374512 8.777179718017578 3.707659721374512 C 7.327548980712891 3.707659721374512 6.339500427246094 4.231548309326172 5.49251651763916 5.455086708068848 L 6.438495635986328 6.172359466552734 C 7.030284881591797 5.431026458740234 7.555478096008301 4.914340019226074 8.610500335693359 4.914340019226074 C 9.563869476318359 4.914340019226074 10.58463001251221 5.542460441589355 10.58463001251221 6.477499961853027 C 10.58463001251221 7.277979850769043 9.921230316162109 7.649930000305176 9.279669761657715 8.00963020324707 L 9.224540710449219 8.040499687194824 C 8.374139785766602 8.516329765319824 7.77217960357666 8.924850463867188 7.77217960357666 9.852819442749023 L 7.77217960357666 9.868949890136719 L 9.355149269104004 9.868949890136719 Z M 8.5625 13.67539978027344 C 9.105010032653809 13.67539978027344 9.546369552612305 13.23404026031494 9.546369552612305 12.69153022766113 C 9.546369552612305 12.14902019500732 9.105010032653809 11.70766067504883 8.5625 11.70766067504883 C 8.019989967346191 11.70766067504883 7.578630447387695 12.14902019500732 7.578630447387695 12.69153022766113 C 7.578630447387695 13.23404026031494 8.019989967346191 13.67539978027344 8.5625 13.67539978027344 Z" stroke="none" fill="#607d8b"/>
    </g>
    <path id="Контур_51" data-name="Контур 51" d="M0,0H15.257" transform="translate(170.5 1252.5)" fill="none" stroke="#607d8b" stroke-linecap="round" stroke-width="2"/>
  </g>
</svg>
