<svg xmlns="http://www.w3.org/2000/svg" width="15.897" height="15.897" viewBox="0 0 15.897 15.897">
  <g id="Group_10" data-name="Group 10" transform="translate(-847 -258)">
    <g id="_001-information" data-name="001-information" transform="translate(847 258)">
      <g id="Group_5" data-name="Group 5">
        <g id="Group_4" data-name="Group 4">
          <path id="Path_1" data-name="Path 1" d="M7.949,0A7.949,7.949,0,1,0,15.9,7.949,7.944,7.944,0,0,0,7.949,0Zm0,14.655a6.707,6.707,0,1,1,6.707-6.707A6.7,6.7,0,0,1,7.949,14.655Z" fill="#607d8b"/>
        </g>
      </g>
      <g id="Group_7" data-name="Group 7" transform="translate(7.328 6.655)">
        <g id="Group_6" data-name="Group 6">
          <path id="Path_2" data-name="Path 2" d="M236.621,214.33a.621.621,0,0,0-.621.621v4a.621.621,0,1,0,1.242,0v-4A.621.621,0,0,0,236.621,214.33Z" transform="translate(-236 -214.33)" fill="#607d8b"/>
        </g>
      </g>
      <g id="Group_9" data-name="Group 9" transform="translate(7.11 4.218)">
        <g id="Group_8" data-name="Group 8">
          <circle id="Ellipse_1" data-name="Ellipse 1" cx="0.838" cy="0.838" r="0.838" fill="#607d8b"/>
        </g>
      </g>
    </g>
  </g>
</svg>
