<svg id="Icon_ionic-ios-menu" data-name="Icon ionic-ios-menu" xmlns="http://www.w3.org/2000/svg" width="20" height="11.667" viewBox="0 0 20 11.667">
  <path id="Path_26" data-name="Path 26" d="M23.667,11.792H5.333a.836.836,0,0,1-.833-.833h0a.836.836,0,0,1,.833-.833H23.667a.836.836,0,0,1,.833.833h0A.836.836,0,0,1,23.667,11.792Z" transform="translate(-4.5 -10.125)" fill="#ccc"/>
  <path id="Path_27" data-name="Path 27" d="M23.667,18.542H5.333a.836.836,0,0,1-.833-.833h0a.836.836,0,0,1,.833-.833H23.667a.836.836,0,0,1,.833.833h0A.836.836,0,0,1,23.667,18.542Z" transform="translate(-4.5 -11.875)" fill="#ccc"/>
  <path id="Path_28" data-name="Path 28" d="M23.667,25.292H5.333a.836.836,0,0,1-.833-.833h0a.836.836,0,0,1,.833-.833H23.667a.836.836,0,0,1,.833.833h0A.836.836,0,0,1,23.667,25.292Z" transform="translate(-4.5 -13.625)" fill="#ccc"/>
</svg>
