<svg xmlns="http://www.w3.org/2000/svg" width="73.002" height="73" viewBox="0 0 73.002 73">
  <g id="Сгруппировать_314" data-name="Сгруппировать 314" transform="translate(-405.999 -2369.5)">
    <path id="Контур_160" data-name="Контур 160" d="M120.09,49.144,99.077,31.512c-.967-.811-2.239.287-3.051,1.254L57.654,77.322a2.286,2.286,0,0,0,.282,3.22L78.949,98.175a2.286,2.286,0,0,0,3.22-.282l38.2-45.529a2.286,2.286,0,0,0-.282-3.22Z" transform="translate(357.024 2342.722)" fill="#eceaec"/>
    <path id="Контур_161" data-name="Контур 161" d="M75.5,93.764H79.76a5.721,5.721,0,0,0,5.715-5.715V50.063a5.724,5.724,0,0,1,1.337-3.673l13.14-15.66L99.077,30a2.286,2.286,0,0,0-3.22.282l-38.2,45.528a2.286,2.286,0,0,0,.282,3.22Z" transform="translate(357.025 2344.239)" fill="#dad8db"/>
    <path id="Контур_162" data-name="Контур 162" d="M37.217,7.506H9.786A2.286,2.286,0,0,0,7.5,9.792V69.225a2.286,2.286,0,0,0,2.286,2.286H37.217A2.286,2.286,0,0,0,39.5,69.225V9.792a2.286,2.286,0,0,0-2.286-2.286Z" transform="translate(399.568 2363.063)" fill="#b8dbbf"/>
    <g id="Сгруппировать_311" data-name="Сгруппировать 311" transform="translate(411.64 2375.141)">
      <circle id="Эллипс_23" data-name="Эллипс 23" cx="2.286" cy="2.286" r="2.286" transform="translate(9.144 41.146)" fill="#fff"/>
    </g>
    <path id="Контур_163" data-name="Контур 163" d="M10.929,64.653V7.506H9.786A2.286,2.286,0,0,0,7.5,9.792V69.225a2.286,2.286,0,0,0,2.286,2.286H37.217A2.286,2.286,0,0,0,39.5,69.225V68.082H14.358a3.433,3.433,0,0,1-3.429-3.429Z" transform="translate(399.569 2363.063)" fill="#87a58d"/>
    <path id="Контур_164" data-name="Контур 164" d="M55.992,224.458H33.133a1.069,1.069,0,1,0,0,2.139H55.992a1.069,1.069,0,1,0,0-2.139Z" transform="translate(378.507 2177.045)"/>
    <path id="Контур_165" data-name="Контур 165" d="M96.193,324.006a3.355,3.355,0,1,0,3.355-3.355A3.359,3.359,0,0,0,96.193,324.006Zm4.572,0a1.217,1.217,0,1,1-1.217-1.217A1.218,1.218,0,0,1,100.765,324.006Z" transform="translate(323.521 2094.567)"/>
    <path id="Контур_172" data-name="Контур 172" d="M72.989,23.831A3.333,3.333,0,0,0,71.8,21.553L50.79,3.921a3.355,3.355,0,0,0-4.727.413L36.825,15.344a1.069,1.069,0,0,0,1.638,1.375L47.7,5.71a1.217,1.217,0,0,1,1.714-.15L70.428,23.192a1.217,1.217,0,0,1,.15,1.714l-38.2,45.529a1.218,1.218,0,0,1-1.714.15L25.377,66.15h5.409a3.359,3.359,0,0,0,3.355-3.355V60.509a1.069,1.069,0,1,0-2.139,0v2.286a1.218,1.218,0,0,1-1.217,1.216H3.355a1.218,1.218,0,0,1-1.217-1.216V3.361A1.218,1.218,0,0,1,3.355,2.145H30.786A1.218,1.218,0,0,1,32,3.361V55.937a1.069,1.069,0,1,0,2.139,0V34.52L48.106,46.238A1.069,1.069,0,1,0,49.481,44.6L34.141,31.728V3.361A3.359,3.359,0,0,0,30.786.006H3.355A3.359,3.359,0,0,0,0,3.361V62.795A3.359,3.359,0,0,0,3.355,66.15H22.049l7.237,6.073a3.359,3.359,0,0,0,4.727-.414l38.2-45.529a3.332,3.332,0,0,0,.772-2.449Z" transform="translate(405.999 2369.494)"/>
  </g>
</svg>
