<svg xmlns="http://www.w3.org/2000/svg" width="16" height="11.2" viewBox="0 0 16 11.2">
  <path id="Icon_awesome-user-friends" data-name="Icon awesome-user-friends" d="M4.8,7.85A2.8,2.8,0,1,0,2,5.05,2.8,2.8,0,0,0,4.8,7.85Zm1.92.8H6.513a3.866,3.866,0,0,1-3.425,0H2.88A2.881,2.881,0,0,0,0,11.53v.72a1.2,1.2,0,0,0,1.2,1.2H8.4a1.2,1.2,0,0,0,1.2-1.2v-.72A2.881,2.881,0,0,0,6.72,8.65ZM12,7.85a2.4,2.4,0,1,0-2.4-2.4A2.4,2.4,0,0,0,12,7.85Zm1.2.8h-.1a3.153,3.153,0,0,1-2.21,0h-.1a2.777,2.777,0,0,0-1.392.385A3.659,3.659,0,0,1,10.4,11.53v.96c0,.055-.013.108-.015.16H14.8a1.2,1.2,0,0,0,1.2-1.2A2.8,2.8,0,0,0,13.2,8.65Z" transform="translate(0 -2.25)" fill="#607d8b"/>
</svg>
