<svg xmlns="http://www.w3.org/2000/svg" width="17" height="19.303" viewBox="0 0 17 19.303">
  <g id="_001-headphones" data-name="001-headphones" transform="translate(-25.98 0.5)">
    <g id="Group_103" data-name="Group 103" transform="translate(26.48)">
      <path id="Path_18" data-name="Path 18" d="M40.741,6.261a6.261,6.261,0,1,0-12.522,0A1.889,1.889,0,0,0,26.48,8.313v3.27a1.941,1.941,0,0,0,2.087,2.087h1.009a.348.348,0,0,0,.348-.348V6.588a.348.348,0,0,0-.348-.348h-.661a5.565,5.565,0,1,1,11.13,0h-.661a.348.348,0,0,0-.348.348v6.723a.348.348,0,0,0,.348.348h.661c-.1,2.39-1.245,2.95-3.537,3.05v-.233a.7.7,0,0,0-.7-.7H33.624a.7.7,0,0,0-.7.7v1.13a.7.7,0,0,0,.7.7h2.195a.7.7,0,0,0,.7-.7v-.2c2.205-.1,4.111-.557,4.226-3.767a1.889,1.889,0,0,0,1.739-2.052V8.317A1.885,1.885,0,0,0,40.741,6.261Zm-11.513.65v6.052H28.55a1.263,1.263,0,0,1-1.391-1.391V8.3A1.264,1.264,0,0,1,28.55,6.911Zm6.591,10.17v.529H33.624V16.48h2.195Zm5.965-5.5a1.264,1.264,0,0,1-1.391,1.391h-.661V6.936h.678A1.263,1.263,0,0,1,41.8,8.327Z" transform="translate(-26.48)" fill="#607d8b" stroke="#607d8b" stroke-width="1"/>
    </g>
  </g>
</svg>
