<?xml version="1.0" encoding="UTF-8"?>
<svg width="30px" height="30px" viewBox="0 0 30 30" version="1.1" xmlns="http://www.w3.org/2000/svg" xmlns:xlink="http://www.w3.org/1999/xlink">
    <!-- Generator: Sketch 58 (84663) - https://sketch.com -->
    <title>Combined Shape</title>
    <desc>Created with Sketch.</desc>
    <g id="Page-2" stroke="none" stroke-width="1" fill="none" fill-rule="evenodd">
        <g id="2.1-" transform="translate(-20.000000, -532.000000)" fill="#C2C2C2" fill-rule="nonzero">
            <path d="M35,532 C43.271,532 50,538.729 50,547 C50,555.271 43.271,562 35,562 C26.729,562 20,555.271 20,547 C20,538.729 26.729,532 35,532 Z M35,533 C27.2805,533 21,539.2805 21,547 C21,554.7195 27.2805,561 35,561 C42.7195,561 49,554.7195 49,547 C49,539.2805 42.7195,533 35,533 Z M38.2185,535.7065 C38.6635,535.961045 38.9452769,536.399888 38.9928313,536.90094 L39,537.053 L39,556.447 C39,557.0105 38.708,557.5135 38.2195,557.7935 C37.9775,557.932 37.713,558.001 37.4485,558.001 C37.178,558.001 36.9075,557.9285 36.6615,557.784 L36.6163125,557.753687 L36.6163125,557.753687 L36.5745,557.7185 L29.9535,551.5545 C29.9035,551.5305 29.8506111,551.514278 29.7963148,551.50613 L29.714,551.5 L25.552,551.5 C24.7435556,551.5 24.0778272,550.878739 24.0063525,550.08944 L24,549.9485 L24,543.552 C24,542.744028 24.6208148,542.07788 25.4104855,542.006357 L25.5515,542 L29.7135,542 C29.7688333,542 29.8235,541.991778 29.8760185,541.97563 L29.953,541.9455 L36.574,535.7815 C36.6005,535.7565 36.6295,535.7345 36.661,535.716 C37.1475,535.43 37.7295,535.426 38.2185,535.7065 Z M37.3074767,536.518583 L37.21,536.5555 L30.588,542.7205 C30.561,542.746 30.5315,542.768 30.5,542.786 C30.3092,542.8984 30.09696,542.96792 29.87864,542.991232 L29.714,543 L25.552,543 C25.27795,543 25.05007,543.200475 25.0072345,543.462551 L25,543.552 L25,549.948 C25,550.22205 25.200475,550.44993 25.462186,550.492766 L25.5515,550.5 L29.7135,550.5 C29.9895,550.5 30.261,550.5735 30.4995,550.714 L30.5451875,550.743938 L30.5451875,550.743938 L30.5875,550.7795 L37.2095,556.9445 C37.441,557.057 37.643,556.971 37.722,556.926 C37.7950625,556.884 37.9531094,556.769648 37.9914795,556.548444 L38,556.447 L38,537.053 C38,536.7645 37.8055,536.622 37.7225,536.574 C37.6552143,536.535429 37.4975612,536.466367 37.3074767,536.518583 Z M40.8535,542.1465 C43.392,544.685 43.392,548.815 40.8535,551.3535 C40.756,551.451 40.628,551.5 40.5,551.5 C40.372,551.5 40.244,551.451 40.1465,551.3535 C39.951,551.158 39.951,550.842 40.1465,550.6465 C42.295,548.498 42.295,545.002 40.1465,542.8535 C39.951,542.658 39.951,542.342 40.1465,542.1465 C40.342,541.951 40.658,541.951 40.8535,542.1465 Z" id="Combined-Shape"></path>
        </g>
    </g>
</svg>