<?xml version="1.0" encoding="UTF-8"?>
<svg width="30px" height="30px" viewBox="0 0 30 30" version="1.1" xmlns="http://www.w3.org/2000/svg" xmlns:xlink="http://www.w3.org/1999/xlink">
    <!-- Generator: Sketch 58 (84663) - https://sketch.com -->
    <title>Combined Shape</title>
    <desc>Created with Sketch.</desc>
    <g id="Page-2" stroke="none" stroke-width="1" fill="none" fill-rule="evenodd">
        <g id="2.1-" transform="translate(-20.000000, -291.000000)" fill="#C2C2C2" fill-rule="nonzero">
            <g id="Group-9" transform="translate(13.000000, 119.000000)">
                <path d="M17.9323535,187.427641 L17.9517496,187.427641 C20.413836,187.418284 22.8050055,188.263141 24.7296597,189.821994 C26.0677852,188.375543 27.9374838,187.558376 29.8920402,187.56535 C33.1344136,187.566375 35.965227,189.794304 36.7744061,192.981748 C37.5835851,196.169191 36.1656529,199.508418 33.327566,201.100089 C30.489479,202.691554 26.9499015,202.132008 24.7231943,199.739579 L24.6649304,199.673943 L24.6649304,199.673943 L24.606818,199.608307 L7.64618257,199.641125 C7.47424464,199.642972 7.30897408,199.574259 7.18754673,199.450781 C7.06854388,199.325868 7.00126381,199.159317 7.00002567,198.985177 C6.99378823,195.803886 8.12441645,192.872013 10.1921165,190.726949 C12.1490118,188.683519 14.7630674,187.525318 17.591892,187.433526 L17.9323535,187.427641 L17.9517496,187.427641 Z M29.8920402,188.877247 C26.6803772,188.877247 24.0770633,191.520528 24.0770633,194.780582 C24.0770633,198.041045 26.6803772,200.684121 29.8920402,200.684121 C33.1037032,200.684121 35.7070171,198.041045 35.7070171,194.780582 C35.7070171,191.520528 33.1037032,188.877247 29.8920402,188.877247 Z M17.9517496,188.739543 L17.9323535,188.739543 C15.3286356,188.739543 12.9057454,189.769485 11.1158534,191.638878 C9.5062566,193.310524 8.53822103,195.531998 8.33545664,197.972558 L8.31170959,198.322664 L23.6893443,198.296615 C22.4090028,195.959772 22.5033565,193.0962 23.9348256,190.851657 C22.2358526,189.47597 20.1249156,188.731002 17.9517496,188.739543 Z M29.8920402,191.468225 C30.2488467,191.468225 30.5381712,191.76174 30.5381712,192.124173 L30.5381712,192.124173 L30.5381712,194.124633 L32.5088909,194.124633 C32.8656974,194.124633 33.1548199,194.418353 33.1548199,194.780582 C33.1548199,195.143015 32.8656974,195.43653 32.5088909,195.43653 L32.5088909,195.43653 L30.5381712,195.43653 L30.5381712,197.437195 C30.5381712,197.799423 30.2488467,198.093144 29.8920402,198.093144 C29.5352336,198.093144 29.2459092,197.799423 29.2459092,197.437195 L29.2459092,197.437195 L29.2459092,195.43653 L27.2751895,195.43653 C26.9183829,195.43653 26.6290585,195.143015 26.6290585,194.780582 C26.6290585,194.418353 26.9183829,194.124633 27.2751895,194.124633 L27.2751895,194.124633 L29.2459092,194.124633 L29.2459092,192.124173 C29.2459092,191.76174 29.5352336,191.468225 29.8920402,191.468225 Z M17.9388189,172 C21.7105429,172 24.7682497,175.104168 24.7682497,178.933408 C24.7682497,182.762442 21.7105429,185.86661 17.9388189,185.86661 C14.1685092,185.862918 11.1130248,182.760801 11.1093881,178.933408 C11.1093881,175.104168 14.1670949,172 17.9388189,172 Z M17.9388189,173.311898 C14.8821223,173.315795 12.4052868,175.830265 12.4016501,178.933408 C12.4016501,182.037781 14.880708,184.554713 17.9388189,184.554713 C20.9971319,184.554713 23.4759878,182.037781 23.4759878,178.933408 C23.4759878,175.828829 20.9971319,173.311898 17.9388189,173.311898 Z" id="Combined-Shape"></path>
            </g>
        </g>
    </g>
</svg>