<?xml version="1.0" encoding="utf-8"?>
<!-- Generator: Adobe Illustrator 23.0.2, SVG Export Plug-In . SVG Version: 6.00 Build 0)  -->
<svg version="1.1" xmlns="http://www.w3.org/2000/svg" xmlns:xlink="http://www.w3.org/1999/xlink" x="0px" y="0px"
	 viewBox="0 0 50 50" style="enable-background:new 0 0 50 50;" xml:space="preserve">
<style type="text/css">
	.st0{fill:none;stroke:#000000;stroke-width:2;stroke-linecap:round;stroke-linejoin:round;stroke-miterlimit:10;}
</style>
<g id="Layer_1">
	<circle class="st0" cx="25" cy="25" r="20"/>
	<g>
		<path d="M18.8,26.3h-3.5v6h-2V17.4h4.9c1.7,0,3,0.4,3.9,1.1s1.4,1.9,1.4,3.3c0,0.9-0.3,1.7-0.8,2.4c-0.5,0.7-1.2,1.2-2.1,1.5
			l3.5,6.3v0.1H22L18.8,26.3z M15.3,24.7h3c1,0,1.8-0.3,2.3-0.8c0.6-0.5,0.9-1.2,0.9-2c0-0.9-0.3-1.6-0.8-2.1
			c-0.6-0.5-1.3-0.7-2.4-0.8h-3V24.7z"/>
		<path d="M36.7,17.4v10.2c0,1.4-0.4,2.6-1.3,3.5c-0.9,0.9-2.1,1.4-3.6,1.5l-0.5,0c-1.6,0-2.9-0.4-3.9-1.3c-1-0.9-1.5-2.1-1.5-3.6
			V17.4h1.9v10.1c0,1.1,0.3,1.9,0.9,2.5c0.6,0.6,1.4,0.9,2.5,0.9c1.1,0,2-0.3,2.6-0.9c0.6-0.6,0.9-1.4,0.9-2.5V17.4H36.7z"/>
	</g>
</g>
<g id="Layer_2">
</g>
</svg>
