<svg xmlns="http://www.w3.org/2000/svg" width="16" height="12.5" viewBox="0 0 16 12.5">
  <path id="_001-subtitles" data-name="001-subtitles" d="M13.5,12.5H2.5A2.5,2.5,0,0,1,0,10V2.5A2.5,2.5,0,0,1,2.5,0h11A2.5,2.5,0,0,1,16,2.5V6.875a.625.625,0,0,1-1.25,0V2.5A1.251,1.251,0,0,0,13.5,1.25H2.5A1.251,1.251,0,0,0,1.25,2.5V10A1.251,1.251,0,0,0,2.5,11.25h11A1.251,1.251,0,0,0,14.75,10,.625.625,0,0,1,16,10,2.5,2.5,0,0,1,13.5,12.5ZM6.63,7.25a.617.617,0,0,0-.578.411,1.188,1.188,0,0,1-2.3-.411V5.272A1.2,1.2,0,0,1,4.909,4.063a1.189,1.189,0,0,1,1.144.78.614.614,0,0,0,.575.408H6.66a.609.609,0,0,0,.576-.81A2.442,2.442,0,0,0,4.913,2.813,2.476,2.476,0,0,0,2.5,5.281V7.219a2.438,2.438,0,0,0,4.736.843.611.611,0,0,0-.578-.812Zm6.125,0a.617.617,0,0,0-.578.411,1.188,1.188,0,0,1-2.3-.411V5.272a1.2,1.2,0,0,1,1.159-1.209,1.189,1.189,0,0,1,1.144.78.614.614,0,0,0,.575.408h.032a.609.609,0,0,0,.576-.81,2.442,2.442,0,0,0-2.323-1.627A2.476,2.476,0,0,0,8.625,5.281V7.219a2.438,2.438,0,0,0,4.736.843.611.611,0,0,0-.578-.812Zm0,0" fill="#607d8b"/>
</svg>
