<?xml version="1.0" encoding="utf-8"?>
<!-- Generator: Adobe Illustrator 23.0.2, SVG Export Plug-In . SVG Version: 6.00 Build 0)  -->
<svg version="1.1" xmlns="http://www.w3.org/2000/svg" xmlns:xlink="http://www.w3.org/1999/xlink" x="0px" y="0px"
	 viewBox="0 0 50 50" style="enable-background:new 0 0 50 50;" xml:space="preserve">
<style type="text/css">
	.st0{fill:url(#SVGID_1_);}
	.st1{fill:#FFFFFF;}
</style>
<g id="Layer_1">
	<linearGradient id="SVGID_1_" gradientUnits="userSpaceOnUse" x1="7.9758" y1="36.6525" x2="49.2401" y2="8.4084">
		<stop  offset="0" style="stop-color:#0071BC"/>
		<stop  offset="6.470203e-02" style="stop-color:#1E62B3"/>
		<stop  offset="0.184" style="stop-color:#5049A3"/>
		<stop  offset="0.2884" style="stop-color:#753698"/>
		<stop  offset="0.3729" style="stop-color:#8B2B91"/>
		<stop  offset="0.4269" style="stop-color:#93278F"/>
		<stop  offset="0.5026" style="stop-color:#8B318D"/>
		<stop  offset="0.6298" style="stop-color:#774B88"/>
		<stop  offset="0.7929" style="stop-color:#557580"/>
		<stop  offset="0.9838" style="stop-color:#26B074"/>
		<stop  offset="1" style="stop-color:#22B573"/>
	</linearGradient>
	<circle class="st0" cx="25" cy="25" r="25"/>
</g>
<g id="Layer_2">
	<g>
		<path class="st1" d="M8.1,20.4v4.8c0,0.7-0.2,1.2-0.6,1.6s-1,0.7-1.7,0.7l-0.2,0c-0.8,0-1.4-0.2-1.9-0.6S3,26,3,25.2v-4.8h0.9v4.8
			c0,0.5,0.1,0.9,0.4,1.2c0.3,0.3,0.7,0.4,1.2,0.4c0.5,0,0.9-0.1,1.2-0.4s0.4-0.7,0.4-1.2v-4.8H8.1z"/>
		<path class="st1" d="M12.5,26.1c0-0.2-0.1-0.4-0.3-0.6c-0.2-0.1-0.5-0.3-1-0.3s-0.8-0.2-1.1-0.4s-0.5-0.3-0.6-0.5
			s-0.2-0.4-0.2-0.7c0-0.4,0.2-0.8,0.5-1.1s0.8-0.4,1.4-0.4c0.6,0,1.1,0.2,1.5,0.5s0.6,0.7,0.6,1.2h-0.9c0-0.2-0.1-0.5-0.3-0.6
			s-0.5-0.3-0.8-0.3c-0.3,0-0.6,0.1-0.8,0.2s-0.3,0.3-0.3,0.6c0,0.2,0.1,0.4,0.3,0.5s0.5,0.2,0.9,0.3s0.8,0.2,1.1,0.4
			s0.5,0.3,0.6,0.5c0.1,0.2,0.2,0.4,0.2,0.7c0,0.5-0.2,0.9-0.6,1.1c-0.4,0.3-0.9,0.4-1.5,0.4c-0.4,0-0.8-0.1-1.1-0.2
			S9.7,27,9.5,26.8c-0.2-0.3-0.3-0.6-0.3-0.9h0.9c0,0.3,0.1,0.5,0.4,0.7c0.2,0.2,0.5,0.3,0.9,0.3c0.3,0,0.6-0.1,0.8-0.2
			C12.4,26.5,12.5,26.3,12.5,26.1z"/>
		<path class="st1" d="M16.8,27.6c-0.7,0-1.3-0.2-1.7-0.7c-0.4-0.5-0.7-1.1-0.7-1.9v-0.2c0-0.5,0.1-1,0.3-1.4s0.5-0.7,0.8-1
			s0.7-0.3,1.2-0.3c0.7,0,1.2,0.2,1.6,0.7s0.6,1.1,0.6,1.9v0.4h-3.6c0,0.5,0.2,0.9,0.5,1.3c0.3,0.3,0.7,0.5,1.1,0.5
			c0.3,0,0.6-0.1,0.8-0.2s0.4-0.3,0.6-0.5l0.6,0.4C18.4,27.3,17.7,27.6,16.8,27.6z M16.7,22.9c-0.4,0-0.7,0.1-0.9,0.4
			s-0.4,0.6-0.5,1.1H18v-0.1c0-0.5-0.1-0.8-0.4-1.1S17.1,22.9,16.7,22.9z"/>
		<path class="st1" d="M22.5,23c-0.1,0-0.3,0-0.4,0c-0.6,0-1,0.3-1.2,0.8v3.8h-0.9v-5.3h0.9l0,0.6c0.3-0.5,0.7-0.7,1.3-0.7
			c0.2,0,0.3,0,0.4,0.1V23z"/>
		<path class="st1" d="M26.9,26.7h3.4v0.8h-4.3v-7.1h0.9V26.7z"/>
		<path class="st1" d="M30.9,24.8c0-0.5,0.1-1,0.3-1.4s0.5-0.7,0.8-1s0.8-0.3,1.2-0.3c0.7,0,1.3,0.2,1.7,0.7s0.7,1.2,0.7,2v0.1
			c0,0.5-0.1,1-0.3,1.4c-0.2,0.4-0.5,0.7-0.8,1s-0.8,0.3-1.3,0.3c-0.7,0-1.3-0.2-1.7-0.7S30.9,25.7,30.9,24.8L30.9,24.8z M31.8,24.9
			c0,0.6,0.1,1.1,0.4,1.4s0.6,0.5,1.1,0.5c0.5,0,0.8-0.2,1.1-0.5c0.3-0.4,0.4-0.9,0.4-1.5c0-0.6-0.1-1-0.4-1.4s-0.6-0.5-1.1-0.5
			c-0.4,0-0.8,0.2-1.1,0.5S31.8,24.3,31.8,24.9z"/>
		<path class="st1" d="M36.6,24.8c0-0.8,0.2-1.5,0.6-2s0.9-0.7,1.5-0.7c0.6,0,1.1,0.2,1.5,0.7l0-0.6h0.8v5.2c0,0.7-0.2,1.2-0.6,1.6
			c-0.4,0.4-0.9,0.6-1.6,0.6c-0.4,0-0.8-0.1-1.1-0.2s-0.6-0.4-0.8-0.7l0.5-0.5c0.4,0.5,0.9,0.7,1.4,0.7c0.4,0,0.8-0.1,1-0.4
			s0.4-0.6,0.4-1V27c-0.4,0.4-0.9,0.6-1.5,0.6c-0.6,0-1.1-0.2-1.5-0.7S36.6,25.7,36.6,24.8z M37.5,24.9c0,0.6,0.1,1.1,0.4,1.4
			c0.2,0.3,0.6,0.5,1,0.5c0.6,0,1-0.3,1.3-0.8v-2.4c-0.3-0.5-0.7-0.8-1.2-0.8c-0.4,0-0.8,0.2-1,0.5S37.5,24.3,37.5,24.9z"/>
		<path class="st1" d="M42.2,24.8c0-0.5,0.1-1,0.3-1.4c0.2-0.4,0.5-0.7,0.8-1c0.4-0.2,0.8-0.3,1.2-0.3c0.7,0,1.3,0.2,1.7,0.7
			c0.4,0.5,0.7,1.2,0.7,2v0.1c0,0.5-0.1,1-0.3,1.4c-0.2,0.4-0.5,0.7-0.8,1c-0.4,0.2-0.8,0.3-1.3,0.3c-0.7,0-1.3-0.2-1.7-0.7
			C42.4,26.4,42.2,25.7,42.2,24.8L42.2,24.8z M43.1,24.9c0,0.6,0.1,1.1,0.4,1.4c0.3,0.4,0.6,0.5,1.1,0.5c0.5,0,0.8-0.2,1.1-0.5
			c0.3-0.4,0.4-0.9,0.4-1.5c0-0.6-0.1-1-0.4-1.4c-0.3-0.4-0.6-0.5-1.1-0.5c-0.4,0-0.8,0.2-1.1,0.5S43.1,24.3,43.1,24.9z"/>
	</g>
</g>
</svg>
