<?xml version="1.0" encoding="utf-8"?>
<!-- Generator: Adobe Illustrator 23.0.2, SVG Export Plug-In . SVG Version: 6.00 Build 0)  -->
<svg version="1.1" id="Layer_1" xmlns="http://www.w3.org/2000/svg" xmlns:xlink="http://www.w3.org/1999/xlink" x="0px" y="0px"
	 viewBox="0 0 40 40" style="enable-background:new 0 0 40 40;" xml:space="preserve">
<style type="text/css">
	.st0{display:none;}
	.st1{display:inline;}
	.st2{fill:none;stroke:#CCCCCC;stroke-width:2;stroke-linecap:round;stroke-linejoin:round;stroke-miterlimit:10;}
</style>
<g class="st0">
	<g class="st1">
		<g>
			<path d="M39.5,18.5L23.3,2.1c0,0,0,0-0.1-0.1c-1.8-1.6-4.5-1.6-6.2,0c0,0,0,0-0.1,0.1L0.5,18.5c-0.6,0.6-0.6,1.6,0,2.2
				s1.6,0.6,2.2,0l1.2-1.2V33c0,3.4,2.8,6.2,6.2,6.2h5.6c0.9,0,1.6-0.7,1.6-1.6V24.9h5.5v12.7c0,0.9,0.7,1.6,1.6,1.6h5.5
				c3.4,0,6.2-2.8,6.2-6.2c0-0.9-0.7-1.6-1.6-1.6c-0.9,0-1.6,0.7-1.6,1.6c0,1.7-1.4,3.1-3.1,3.1h-3.9V23.3c0-0.9-0.7-1.6-1.6-1.6
				h-8.6c-0.9,0-1.6,0.7-1.6,1.6V36H10c-1.7,0-3.1-1.4-3.1-3.1V16.4l0,0l12-12c0.6-0.5,1.4-0.5,2,0l11.9,12v8.8
				c0,0.9,0.7,1.6,1.6,1.6c0.9,0,1.6-0.7,1.6-1.6v-5.7l1.2,1.2c0.3,0.3,0.7,0.5,1.1,0.5c0.4,0,0.8-0.2,1.1-0.5
				C40.2,20.1,40.2,19.1,39.5,18.5z"/>
		</g>
	</g>
</g>
<g>
	<g>
		<path class="st2" d="M1.5,19.7c5.7-5.7,11.3-11.3,17-17c0.1-0.1,0.8-1,2-1c0.1,0,1.3,0,2,1c5.3,5.7,10.7,11.3,16,17"/>
		<path class="st2" d="M34.6,15.7c0,3.3,0,6.7-0.1,10"/>
		<path class="st2" d="M34.5,32.7c0,0.6-0.2,1.8-1,3c-0.6,0.8-1.2,1.3-1.5,1.5c-1.4,1-2.9,1-4,1c-0.8,0-2.1-0.1-3.6-0.6
			c0-4.6,0-9.3,0.1-13.9c-3,0-6,0-9,0c0,4.7,0,9.3,0,14c-2,0-4,0-6,0c-0.2,0-1.8,0.2-3-1c-0.8-0.8-0.9-1.7-1-2c0-6.3,0-12.7,0-19"/>
	</g>
</g>
</svg>
