<?xml version="1.0" encoding="utf-8"?>
<!-- Generator: Adobe Illustrator 23.0.2, SVG Export Plug-In . SVG Version: 6.00 Build 0)  -->
<svg version="1.1" id="Capa_1" xmlns="http://www.w3.org/2000/svg" xmlns:xlink="http://www.w3.org/1999/xlink" x="0px" y="0px"
	 viewBox="0 0 512 512" style="enable-background:new 0 0 512 512;" xml:space="preserve">
<style type="text/css">
	.st0{fill:#E0E0E0;}
</style>
<g>
	<g>
		<path class="st0" d="M455.7,217.6c-5.1-28.2-15.4-53.8-30.7-74.2l28.2-48.6l-35.8-35.8L368.6,87c-23-15.4-48.6-25.6-74.2-30.7
			L281.6,0h-51.2l-12.8,56.3c-28.2,5.1-53.8,15.4-76.8,30.7L92.2,56.3L56.3,92.2l28.2,48.6c-15.4,23-25.6,48.6-30.7,74.2L0,230.4
			v51.2l56.3,12.8c5.1,28.2,15.4,53.8,30.7,74.2l-28.2,48.6l35.8,35.8l48.6-28.2c23,15.4,48.6,25.6,74.2,30.7l12.8,56.3h51.2
			l12.8-56.3c28.2-5.1,53.8-15.4,74.2-30.7l48.6,28.2l35.8-35.8L425,368.6c15.4-23,25.6-48.6,30.7-74.2l56.3-12.8v-51.2L455.7,217.6
			z M256,384c-71.7,0-128-56.3-128-128s56.3-128,128-128s128,56.3,128,128S327.7,384,256,384z"/>
	</g>
</g>
</svg>
