<?xml version="1.0" encoding="UTF-8"?>
<svg width="32px" height="32px" viewBox="0 0 32 32" version="1.1" xmlns="http://www.w3.org/2000/svg" xmlns:xlink="http://www.w3.org/1999/xlink">
    <!-- Generator: Sketch 58 (84663) - https://sketch.com -->
    <title>Combined Shape</title>
    <desc>Created with Sketch.</desc>
    <g id="Page-2" stroke="none" stroke-width="1" fill="none" fill-rule="evenodd">
        <g id="2.1-" transform="translate(-19.000000, -450.000000)" fill="#C2C2C2" fill-rule="nonzero">
            <g id="Group-9" transform="translate(13.000000, 119.000000)">
                <g id="Group-10" transform="translate(6.000000, 331.000000)">
                    <path d="M16,0.5 C24.5604136,0.5 31.5,7.43958638 31.5,16 C31.5,24.5604136 24.5604136,31.5 16,31.5 C7.43958638,31.5 0.5,24.5604136 0.5,16 C0.5,7.43958638 7.43958638,0.5 16,0.5 Z M16,1.5 C7.99187113,1.5 1.5,7.99187113 1.5,16 C1.5,24.0081289 7.99187113,30.5 16,30.5 C24.0081289,30.5 30.5,24.0081289 30.5,16 C30.5,7.99187113 24.0081289,1.5 16,1.5 Z M18.3496094,12.4335938 L18.3496094,18.0234375 C18.3496094,18.7382848 18.5449199,19.2871075 18.9355469,19.6699219 C19.3261738,20.0527363 19.9003868,20.2441406 20.6582031,20.2441406 C21.380863,20.2441406 21.937498,20.0517597 22.328125,19.6669922 C22.718752,19.2822246 22.9140625,18.7304723 22.9140625,18.0117188 L22.9140625,12.4335938 L23.9101562,12.4335938 L23.9101562,17.9765625 C23.9101562,18.9531299 23.6152373,19.7207003 23.0253906,20.2792969 C22.4355439,20.8378934 21.6250052,21.1171875 20.59375,21.1171875 C19.5624948,21.1171875 18.7646513,20.8359403 18.2001953,20.2734375 C17.6357394,19.7109347 17.3535156,18.9375049 17.3535156,17.953125 L17.3535156,12.4335938 L18.3496094,12.4335938 Z M12.3730469,12.4335938 C13.4238334,12.4335938 14.2001928,12.6347636 14.7021484,13.0371094 C15.2041041,13.4394551 15.4550781,14.0449178 15.4550781,14.8535156 C15.4550781,15.9863338 14.8808651,16.7519511 13.7324219,17.1503906 L16.0585938,21 L14.8808594,21 L12.8066406,17.4375 L11.0195312,17.4375 L11.0195312,21 L10.0234375,21 L10.0234375,12.4335938 L12.3730469,12.4335938 Z M12.3144531,13.3066406 L11.0195312,13.3066406 L11.0195312,16.5820312 L12.3847656,16.5820312 C13.0878941,16.5820312 13.603514,16.4423842 13.9316406,16.1630859 C14.2597673,15.8837877 14.4238281,15.4648465 14.4238281,14.90625 C14.4238281,14.3398409 14.2568376,13.9316419 13.9228516,13.6816406 C13.5888655,13.4316394 13.0527381,13.3066406 12.3144531,13.3066406 Z" id="Combined-Shape"></path>
                </g>
            </g>
        </g>
    </g>
</svg>