<svg xmlns="http://www.w3.org/2000/svg" width="16" height="13.241" viewBox="0 0 16 13.241">
  <g id="_001-cms" data-name="001-cms" transform="translate(0 0)">
    <path id="Контур_39" data-name="Контур 39" d="M15.688,6.343H14.656V5.416a.312.312,0,0,0-.312-.313h-.711a5.8,5.8,0,0,0-.553-1.333l.5-.5a.313.313,0,0,0,0-.442L11.83,1.073a.313.313,0,0,0-.442,0l-.5.5a5.793,5.793,0,0,0-1.333-.553V.312A.312.312,0,0,0,9.24,0H6.761a.312.312,0,0,0-.313.313v.711a5.792,5.792,0,0,0-1.333.553l-.5-.5a.313.313,0,0,0-.442,0L2.417,2.826a.312.312,0,0,0,0,.442l.5.5A5.792,5.792,0,0,0,2.367,5.1H1.657a.313.313,0,0,0-.312.312v.927H.313a.313.313,0,1,0,0,.625H6.75a.313.313,0,1,0,0-.625H5.4a2.616,2.616,0,0,1,5.2,0H9.25a.312.312,0,1,0,0,.625h6.437a.313.313,0,1,0,0-.625ZM8,3.414A3.246,3.246,0,0,0,4.773,6.343h-2.8V5.729h.642a.313.313,0,0,0,.3-.243,5.173,5.173,0,0,1,.663-1.6A.313.313,0,0,0,3.534,3.5L3.08,3.046,4.391,1.736l.454.454a.313.313,0,0,0,.387.044,5.176,5.176,0,0,1,1.6-.663.312.312,0,0,0,.243-.3V.625H8.927v.642a.313.313,0,0,0,.243.3,5.178,5.178,0,0,1,1.6.663.312.312,0,0,0,.387-.044l.454-.454L12.92,3.047l-.454.454a.312.312,0,0,0-.044.387,5.178,5.178,0,0,1,.663,1.6.312.312,0,0,0,.3.243h.642v.615h-2.8A3.246,3.246,0,0,0,8,3.414Zm0,0" fill="#607d8b" fill-rule="evenodd"/>
    <path id="Контур_40" data-name="Контур 40" d="M60.522,260.5h.659a.671.671,0,0,1,.671.671.313.313,0,0,0,.625,0,1.3,1.3,0,0,0-1.3-1.3h-.659a1.3,1.3,0,0,0-1.3,1.3v2.391a1.3,1.3,0,0,0,1.3,1.3h.659a1.3,1.3,0,0,0,1.3-1.3.313.313,0,0,0-.625,0,.671.671,0,0,1-.671.671h-.659a.672.672,0,0,1-.671-.671v-2.391A.672.672,0,0,1,60.522,260.5Zm0,0" transform="translate(-57.375 -251.75)" fill="#607d8b" fill-rule="evenodd"/>
    <path id="Контур_41" data-name="Контур 41" d="M195.029,261.558a.312.312,0,0,0-.351.149l-1.626,2.9-1.626-2.9a.313.313,0,0,0-.585.153v4.253a.312.312,0,0,0,.625,0v-3.057l1.314,2.342a.313.313,0,0,0,.545,0l1.314-2.342v3.057a.312.312,0,0,0,.625,0v-4.253A.312.312,0,0,0,195.029,261.558Zm0,0" transform="translate(-184.876 -253.375)" fill="#607d8b" fill-rule="evenodd"/>
    <path id="Контур_42" data-name="Контур 42" d="M360.119,257.782a.846.846,0,1,1,.689-1.337.312.312,0,1,0,.509-.363,1.471,1.471,0,1,0-1.2,2.325.846.846,0,1,1-.749,1.238.312.312,0,1,0-.553.291,1.471,1.471,0,1,0,1.3-2.154Zm0,0" transform="translate(-347.441 -247.482)" fill="#607d8b" fill-rule="evenodd"/>
    <path id="Контур_43" data-name="Контур 43" d="M246.625,203.3a.313.313,0,1,0-.312.313A.313.313,0,0,0,246.625,203.3Zm0,0" transform="translate(-238.313 -196.645)" fill="#607d8b" fill-rule="evenodd"/>
  </g>
</svg>
