<?xml version="1.0" encoding="UTF-8"?>
<svg width="30px" height="30px" viewBox="0 0 30 30" version="1.1" xmlns="http://www.w3.org/2000/svg" xmlns:xlink="http://www.w3.org/1999/xlink">
    <!-- Generator: Sketch 58 (84663) - https://sketch.com -->
    <title>Combined Shape</title>
    <desc>Created with Sketch.</desc>
    <g id="Page-2" stroke="none" stroke-width="1" fill="none" fill-rule="evenodd">
        <g id="2.1-" transform="translate(-20.000000, -612.000000)" fill="#C2C2C2" fill-rule="nonzero">
            <path d="M42.9997665,622.499684 C43.2452192,622.499684 43.4493617,622.676554 43.4916965,622.909796 L43.4997519,622.999669 L43.4997519,627.499538 C43.4929305,631.330052 40.9294314,634.67157 37.2578762,635.6849 L36.9999416,635.751797 L36.9999416,637.999231 L38.9998833,637.999231 C40.3246701,638.000818 41.4082755,639.031495 41.4943068,640.334871 L41.4998103,640.499158 L41.4998103,640.999144 C41.4998103,641.511964 41.1137814,641.934623 40.6164572,641.992387 L40.4998395,641.999114 L29.5001605,641.999114 C28.9873397,641.999114 28.5646807,641.613085 28.5069173,641.115761 L28.5001897,640.999144 L28.5001897,640.499158 C28.5017766,639.174371 29.532454,638.090766 30.8358293,638.004735 L31.0001167,637.999231 L33.0000584,637.999231 L33.0000584,635.751797 C29.2777492,634.84775 26.6298072,631.572742 26.504854,627.765966 L26.5002481,627.499538 L26.5002481,622.999669 C26.5002481,622.723535 26.7240992,622.499684 27.0002335,622.499684 C27.2456862,622.499684 27.4498287,622.676554 27.4921635,622.909796 L27.5002189,622.999669 L27.5002189,627.499538 C27.5002189,631.641552 30.8579853,634.999319 35,634.999319 C39.0607987,634.999319 42.3678025,631.771938 42.4959276,627.742262 L42.4997811,627.499538 L42.4997811,622.999669 C42.4997811,622.723535 42.7236322,622.499684 42.9997665,622.499684 Z M38.9998833,638.999202 L31.0001167,638.999202 C30.2204434,638.999202 29.5797095,639.594073 29.5070269,640.354702 L29.5001605,640.499158 L29.5001605,640.999144 L40.4998395,640.999144 L40.4998395,640.499158 C40.4998395,639.670755 39.8282862,638.999202 38.9998833,638.999202 Z M35.9999708,635.935291 C35.4688344,636.003508 34.9324627,636.017151 34.3992322,635.976221 L34.0000292,635.935291 L34.0000292,637.999231 L35.9999708,637.999231 L35.9999708,635.935291 Z M37.2569341,612.412478 C37.2819282,612.41937 37.3063372,612.428231 37.329932,612.438977 C38.6481913,612.948981 39.7652982,613.87309 40.5133391,615.0724 C40.5455124,615.110799 40.5717989,615.153768 40.5913368,615.199897 C41.1315434,616.10734 41.4400392,617.132019 41.4919571,618.183607 L41.4998103,618.4998 L41.4998103,627.499538 C41.4956774,631.08757 38.5880328,633.995215 35,633.999348 C31.4899679,633.995305 28.6310635,631.212618 28.5045529,627.732552 L28.5001897,627.499538 L28.5001897,618.4998 C28.5009385,617.338806 28.8147828,616.199501 29.4086632,615.201897 C29.4282011,615.155768 29.4544876,615.112799 29.4866609,615.0744 C30.2343742,613.874343 31.3515175,612.949502 32.670068,612.438977 C32.6936628,612.428231 32.7180718,612.41937 32.7430659,612.412478 C34.1974322,611.862507 35.8025678,611.862507 37.2569341,612.412478 Z M47.4335288,620.001236 C47.5657401,620.01155 47.688438,620.073966 47.7746271,620.174751 C50.7440405,623.64565 50.7395406,630.358954 47.7746271,633.824353 C47.6585192,633.96011 47.4788056,634.023612 47.3031826,633.990938 C47.1275597,633.958264 46.9827087,633.834378 46.9231937,633.665947 C46.8636787,633.497516 46.8985414,633.310129 47.0146493,633.174372 C49.664572,630.078462 49.664572,623.919642 47.0146493,620.824732 C46.9284501,620.723956 46.8858178,620.593063 46.8961322,620.460851 C46.9064465,620.32864 46.9688626,620.205942 47.0696477,620.119753 C47.1704243,620.033554 47.3013174,619.990921 47.4335288,620.001236 Z M22.6968174,620.008167 L22.6968174,620.008167 C22.8724403,620.040841 23.0172913,620.164726 23.0768063,620.333157 C23.1363213,620.501588 23.1014586,620.688975 22.9853507,620.824732 C20.336428,623.920642 20.337428,630.079462 22.9853507,633.174372 C23.164838,633.384234 23.1402144,633.699864 22.9303523,633.879351 C22.7204902,634.058839 22.4048602,634.034215 22.2253729,633.824353 C19.2559595,630.353454 19.2604594,623.64015 22.2253729,620.174751 C22.3027781,620.084247 22.4084526,620.025856 22.5223381,620.006665 L22.6089784,619.999734 Z M40.4998395,623.499654 L29.5001605,623.499654 L29.5001605,627.499538 C29.5001605,630.537015 31.9625226,632.999377 35,632.999377 C37.9633926,632.999377 40.3793821,630.655665 40.4954724,627.720738 L40.4998395,627.499538 L40.4998395,623.499654 Z M45.5451922,622.28869 C47.4851356,624.563623 47.4801357,629.440981 45.5451922,631.711415 C45.3657049,631.921553 45.049851,631.9464 44.8397128,631.766913 C44.6295746,631.587426 44.6047272,631.271572 44.7842144,631.061434 C46.4036671,629.163989 46.4051671,624.838615 44.7842144,622.938671 C44.6047272,622.728532 44.6295746,622.412679 44.8397128,622.233191 C45.049851,622.053704 45.3657049,622.078551 45.5451922,622.28869 Z M24.7958017,622.114913 C24.9280153,622.104504 25.0589474,622.147051 25.1597872,622.233191 C25.3696427,622.412338 25.3947042,622.727621 25.2157856,622.937671 C23.5963329,624.835115 23.5948329,629.160489 25.2157856,631.060434 C25.3952729,631.270572 25.3704254,631.586426 25.1602872,631.765913 C24.950149,631.9454 24.6342951,631.920553 24.4548078,631.710415 C22.5148644,629.435481 22.5198643,624.558123 24.4548078,622.28869 C24.5409265,622.187832 24.6635881,622.125321 24.7958017,622.114913 Z M37.7499197,618.456802 L35.7069794,620.499742 L37.706921,622.499684 L40.4998395,622.499684 L40.4998395,621.206721 L37.7499197,618.456802 Z M32.2500803,618.456802 L29.5001605,621.206721 L29.5001605,622.499684 L32.293079,622.499684 L34.2930206,620.499742 L32.2500803,618.456802 Z M35,621.206721 L33.7070377,622.499684 L36.2929623,622.499684 L35,621.206721 Z M30.0051458,616.211867 C29.4549833,617.407832 29.4911302,618.264514 29.499101,619.50048 L29.5001605,619.792763 L31.5431009,617.749822 L30.0051458,616.211867 Z M35,615.706882 L32.9550597,617.749822 L35,619.792763 L37.0429404,617.749822 L35,615.706882 Z M39.9948542,616.211867 L38.4568991,617.749822 L40.4998395,619.792763 C40.4998395,618.402303 40.5868369,617.499829 39.9948542,616.211867 Z M37.2299349,613.476947 L35.7069794,614.999902 L37.7499197,617.042843 L39.4763693,615.316393 C38.904962,614.513914 38.1293619,613.87883 37.2299349,613.476947 Z M32.7700651,613.476947 C31.9605808,613.838642 31.2513963,614.389229 30.7010983,615.080737 L30.5236307,615.316393 L32.2500803,617.042843 L34.2930206,614.999902 L32.7700651,613.476947 Z M34.1232569,613.071406 L33.834034,613.126957 L35,614.292923 L36.165966,613.126957 C35.4938852,612.97882 34.800631,612.960303 34.1232569,613.071406 Z" id="Combined-Shape"></path>
        </g>
    </g>
</svg>