<svg xmlns="http://www.w3.org/2000/svg" width="88" height="88" viewBox="0 0 88 88">
  <g id="Сгруппировать_304" data-name="Сгруппировать 304" transform="translate(-695 -1076)">
    <g id="course_icon" transform="translate(689 1070)">
      <g id="Сгруппировать_301" data-name="Сгруппировать 301">
        <path id="Контур_157" data-name="Контур 157" d="M85.2,40.5V14.8a4.439,4.439,0,0,0-4.4-4.4H79.3A4.439,4.439,0,0,0,74.9,6H50a5.707,5.707,0,0,0-4.4,2,5.707,5.707,0,0,0-4.4-2H16.3a4.439,4.439,0,0,0-4.4,4.4H10.4A4.439,4.439,0,0,0,6,14.8V69.1a4.439,4.439,0,0,0,4.4,4.4H58.8v7.3A13.187,13.187,0,0,0,72,94h8.8A13.187,13.187,0,0,0,94,80.8V52.9A13.135,13.135,0,0,0,85.2,40.5ZM79.3,13.3h1.5a1.538,1.538,0,0,1,1.5,1.5v25a7.569,7.569,0,0,0-1.5-.1H79.3ZM20.7,8.9h8.8V28.2l-3.3-4.1a1.738,1.738,0,0,0-1.1-.6,1.255,1.255,0,0,0-1.1.6l-3.3,4.1Zm-5.9,1.5a1.538,1.538,0,0,1,1.5-1.5h1.5V32.4a1.5,1.5,0,0,0,1,1.4,1.423,1.423,0,0,0,1.6-.5l4.7-5.9,4.7,5.9a1.738,1.738,0,0,0,1.1.6,1.528,1.528,0,0,0,1-.4,1.284,1.284,0,0,0,.4-1V8.9h8.8A2.9,2.9,0,0,1,44,11.8V59.6a5.614,5.614,0,0,0-3.1-.9H14.8Zm0,51.3H41.1a3.134,3.134,0,0,1,3,2.9H14.8Zm44,8.8H10.4A1.538,1.538,0,0,1,8.9,69V14.8a1.538,1.538,0,0,1,1.5-1.5h1.5V66.1a1.538,1.538,0,0,0,1.5,1.5H58.9v2.9Zm0-5.8H47.1a3.058,3.058,0,0,1,3-2.9h8.7Zm0-5.9H50.1a5.614,5.614,0,0,0-3.1.9V11.9A2.9,2.9,0,0,1,49.9,9H74.8a1.538,1.538,0,0,1,1.5,1.5V39.8H72A13.187,13.187,0,0,0,58.8,53ZM74.9,42.7V61.8H61.7V53A10.285,10.285,0,0,1,72,42.7h2.9ZM91.1,80.8A10.285,10.285,0,0,1,80.8,91.1H72A10.285,10.285,0,0,1,61.7,80.8V64.7H91l.1,16.1Zm0-19.1H77.9v-19h2.9A10.285,10.285,0,0,1,91.1,53v8.7Z" fill="#cde1ea"/>
      </g>
    </g>
  </g>
</svg>
