<svg xmlns="http://www.w3.org/2000/svg" width="88" height="88" viewBox="0 0 88 88">
  <g id="Сгруппировать_323" data-name="Сгруппировать 323" transform="translate(-695 -1076)">
    <g id="course_icon" transform="translate(695 1076)">
      <g id="Сгруппировать_301" data-name="Сгруппировать 301" transform="translate(0 0)">
        <path id="Контур_157" data-name="Контур 157" d="M15,41V15c0-2.4,1.6-5,4-5h2a3.779,3.779,0,0,1,4-4H50a4.927,4.927,0,0,1,4,2,7.028,7.028,0,0,1,5-2H84a3.779,3.779,0,0,1,4,4h2c2.4,0,4,2.6,4,5V69c0,2.4-1.6,5-4,5H41v7A12.849,12.849,0,0,1,28,94H19A12.849,12.849,0,0,1,6,81V53C6,47.4,9.7,42.9,15,41Zm6-28H19c-.8,0-1,1.2-1,2V40a3.352,3.352,0,0,1,1,0h2ZM79,9H70V28l4-4c.3-.3.6-1,1-1s.8.6,1,1l3,4Zm6,1c0-.8-.2-1-1-1H82V32c0,.6-.4,1.8-1,2s-.6-.5-1-1l-5-6-5,6c-.3.3-.6,1-1,1s-.8.2-1,0c-.3-.3,0-.6,0-1V9H59a3.076,3.076,0,0,0-3,3V60a5.389,5.389,0,0,1,3-1H85Zm0,52H59a3.226,3.226,0,0,0-3,3H85ZM41,71H90c.8,0,1-1.2,1-2V15c0-.8-.2-2-1-2H88V66c0,.8-.2,2-1,2H41v3Zm0-6H53a3.148,3.148,0,0,0-3-3H41Zm0-6h9a5.389,5.389,0,0,1,3,1V12a3.076,3.076,0,0,0-3-3H25c-.8,0-1,1.2-1,2V40h4A12.849,12.849,0,0,1,41,53ZM25,43V62H38V53A9.782,9.782,0,0,0,28,43ZM9,81A9.782,9.782,0,0,0,19,91h9A9.782,9.782,0,0,0,38,81V65H9V81ZM9,62H22V43H19A9.782,9.782,0,0,0,9,53Z" transform="translate(-6 -6)" fill="#cde1ea"/>
      </g>
    </g>
  </g>
</svg>
