<svg xmlns="http://www.w3.org/2000/svg" xmlns:xlink="http://www.w3.org/1999/xlink" width="6" height="6" viewBox="0 0 6 6">
    <defs>
        <path id="a" d="M.16.16a.545.545 0 0 1 .771 0L3 2.228 5.069.16c.19-.19.483-.21.696-.063L5.84.16a.545.545 0 0 1 0 .771L3.772 3 5.84 5.069c.19.19.21.483.063.696l-.063.075a.545.545 0 0 1-.771 0L3 3.772.931 5.84a.546.546 0 0 1-.696.063L.16 5.84a.545.545 0 0 1 0-.771L2.228 3 .16.931A.546.546 0 0 1 .097.235z"/>
    </defs>
    <use fill="#8A8A8A" fill-rule="evenodd" xlink:href="#a"/>
</svg>
