<svg xmlns="http://www.w3.org/2000/svg" width="84.2" height="93.53" viewBox="0 0 84.2 93.53">
  <g id="Сгруппировать_302" data-name="Сгруппировать 302" transform="translate(-1534.9 -1063.967)">
    <g id="Layer_2" transform="translate(1526.9 1060.456)">
      <g id="Сгруппировать_297" data-name="Сгруппировать 297">
        <g id="Сгруппировать_296" data-name="Сгруппировать 296">
          <path id="Контур_154" data-name="Контур 154" d="M40.5,28.5a24.776,24.776,0,0,0-10,0,23.033,23.033,0,0,0-8,3,20.633,20.633,0,0,0-8,9,21.35,21.35,0,0,0-1,14,23.152,23.152,0,0,0,6,11c-3.3,2.3-6.7,4.7-10,7,11.1.1,19.8,0,25,0a21.87,21.87,0,0,0,7-1,22.265,22.265,0,0,0,6-3,25.215,25.215,0,0,0,7-6,18,18,0,0,0,4-9,17.53,17.53,0,0,0,0-4" fill="none" stroke="#cde1ea" stroke-linecap="round" stroke-linejoin="round" stroke-miterlimit="10" stroke-width="3"/>
        </g>
        <path id="Контур_155" data-name="Контур 155" d="M59.7,51.5a24.776,24.776,0,0,1,10,0,23.033,23.033,0,0,1,8,3,20.632,20.632,0,0,1,8,9,21.35,21.35,0,0,1,1,14,23.152,23.152,0,0,1-6,11c3.3,2.3,6.7,4.7,10,7-11.1.1-19.8,0-25,0a21.87,21.87,0,0,1-7-1,22.265,22.265,0,0,1-6-3,25.215,25.215,0,0,1-7-6,20.454,20.454,0,0,1-4-9c-.1-.8-.2-1.7-.2-1.7a17.852,17.852,0,0,1,0-3.3" fill="none" stroke="#cde1ea" stroke-linecap="round" stroke-linejoin="round" stroke-miterlimit="10" stroke-width="3"/>
        <path id="Контур_156" data-name="Контур 156" d="M80.7,42.5c3.3,2.3,6.7,4.7,10,7-11.1.1-19.8,0-25,0a21.87,21.87,0,0,1-7-1,22.265,22.265,0,0,1-6-3,25.215,25.215,0,0,1-7-6,20.454,20.454,0,0,1-4-9,19.946,19.946,0,0,1,1-10,22.614,22.614,0,0,1,6-9,24.424,24.424,0,0,1,11-6,24.776,24.776,0,0,1,10,0,23.033,23.033,0,0,1,8,3,20.632,20.632,0,0,1,8,9,21.35,21.35,0,0,1,1,14A23.152,23.152,0,0,1,80.7,42.5Z" fill="none" stroke="#cde1ea" stroke-linecap="round" stroke-linejoin="round" stroke-miterlimit="10" stroke-width="3"/>
      </g>
    </g>
    <g id="Layer_3" transform="translate(1526.9 1060.456)">
      <text id="_1" data-name="1" transform="translate(27.549 63.899)" fill="#cde1ea" font-size="33.33" font-family="SegoeUI, Segoe UI"><tspan x="0" y="0">1</tspan></text>
      <text id="_2" data-name="2" transform="translate(55.549 39.899)" fill="#cde1ea" font-size="33.33" font-family="SegoeUI, Segoe UI"><tspan x="0" y="0">2</tspan></text>
      <text id="_3" data-name="3" transform="translate(55.549 86.899)" fill="#cde1ea" font-size="33.33" font-family="SegoeUI, Segoe UI"><tspan x="0" y="0">3</tspan></text>
    </g>
  </g>
</svg>
