<?xml version="1.0" encoding="UTF-8"?>
<svg width="30px" height="30px" viewBox="0 0 30 30" version="1.1" xmlns="http://www.w3.org/2000/svg" xmlns:xlink="http://www.w3.org/1999/xlink">
    <!-- Generator: Sketch 58 (84663) - https://sketch.com -->
    <title>Combined Shape</title>
    <desc>Created with Sketch.</desc>
    <g id="Page-2" stroke="none" stroke-width="1" fill="none" fill-rule="evenodd">
        <g id="2.1-" transform="translate(-20.000000, -211.000000)" fill="#C2C2C2" fill-rule="nonzero">
            <g id="Group-9" transform="translate(13.000000, 119.000000)">
                <path d="M29.4999561,119.321458 C29.7457368,119.321458 29.9496195,119.511092 29.9918925,119.760906 L29.9999355,119.857154 L29.9999355,121.464304 C29.9999355,121.759995 29.7764594,122 29.4999561,122 C29.2541753,122 29.0502926,121.810366 29.0080196,121.560552 L28.9999766,121.464304 L28.9999766,119.857154 C28.9999766,119.561464 29.2234527,119.321458 29.4999561,119.321458 Z M28.0317769,118.786494 L28.1209548,118.801771 C28.3591835,118.865611 28.5144494,119.102517 28.4989749,119.356051 L28.4849971,119.4516 L27.9850176,121.594446 C27.928006,121.837653 27.7245103,122 27.5005068,122 C27.4604874,122 27.4194718,121.995166 27.3789836,121.983928 C27.1407549,121.920089 26.9851187,121.68358 27.0008812,121.429781 L27.015,121.3341 L27.5149795,119.191254 C27.5667046,118.968304 27.7424183,118.81246 27.9440583,118.7885 L28.0317769,118.786494 Z M30.8789573,118.801771 C31.1459099,118.729449 31.4179601,118.904666 31.4849326,119.191254 L31.4849326,119.191254 L31.9849707,121.3341 C32.0520019,121.621755 31.8889944,121.912172 31.6209871,121.983928 C31.5804403,121.995166 31.5394833,122 31.4994639,122 C31.2754604,122 31.0719647,121.837653 31.0149531,121.594446 L31.0149531,121.594446 L30.5149736,119.4516 C30.4479425,119.164447 30.61095,118.873528 30.8789573,118.801771 Z M22.1159697,92.0146113 L22.190986,92.0405868 L36.6915045,98.4691246 C36.8780081,98.5521816 37,98.7471741 37,98.9641394 C37,99.1501096 36.9103302,99.3203517 36.7669668,99.4171453 L36.6909772,99.4591542 L30,102.425978 L30,103.394035 L35.9999824,100.748139 L35.9999824,100.571352 C35.9999824,100.275662 36.2234585,100.035657 36.4999619,100.035657 C36.7457427,100.035657 36.9496717,100.22529 36.9919549,100.475148 L37,100.571415 L37,101.107111 C37,101.293081 36.9103302,101.463692 36.7666347,101.560591 L36.6904498,101.602628 L29.9999355,104.552816 L29.9999355,111.198005 C30.5657878,110.56009 30.865385,109.914419 30.9761509,109.640211 L30.9999531,109.579617 L30.9999531,105.928687 C30.9999531,105.632996 31.2234293,105.392991 31.4999326,105.392991 C31.7457134,105.392991 31.9495961,105.582625 31.991869,105.832439 L31.9999121,105.928687 L31.9999121,109.678683 C31.9999121,109.738135 31.9904199,109.797587 31.9724317,109.853837 C31.9508317,109.91965 31.4757947,111.347137 30.1678006,112.488334 L29.9999355,112.629373 L29.9999355,115.670088 C30.5804813,115.892453 30.9999531,116.481197 30.9999531,117.178675 C30.9999531,118.064742 30.3269466,118.785825 29.4999561,118.785825 C28.6729655,118.785825 27.999959,118.064742 27.999959,117.178675 C27.999959,116.530959 28.361697,115.977051 28.8781443,115.723239 L28.9999766,115.670088 L28.9999766,102.472121 L23.2940111,100.189403 C22.9470196,100.425077 22.5005361,100.571352 22.0000293,100.571352 C20.8785471,100.571352 20.0000527,99.8652735 20.0000527,98.9642022 C20.0000527,98.0631309 20.8785471,97.3570521 22.0000293,97.3570521 C23.1215115,97.3570521 24,98.0631309 24,98.9642022 C24,99.0438482 23.9922162,99.1213458 23.9784332,99.1971785 L23.9534825,99.3097395 L29.4519679,101.509401 L35.1924449,98.9642022 L21.9999707,93.1152429 L8.80749647,98.9642022 L21.9999707,104.813161 L27.0520311,102.573824 C27.3070307,102.461323 27.5995301,102.59046 27.7050572,102.863676 C27.7988591,103.107036 27.7136799,103.381696 27.5141284,103.51874 L27.4340617,103.563351 L22.1910445,105.887818 C22.1300486,105.915189 22.0650682,105.928561 22.0000293,105.928561 C21.95667,105.928561 21.9133368,105.92259 21.8711927,105.910518 L21.809014,105.887818 L7.30902283,99.459217 C7.12199195,99.376725 7,99.1811675 7,98.9642022 C7,98.778232 7.08962674,98.608405 7.23301476,98.5113742 L7.30902283,98.4691874 L21.809014,92.0405868 C21.9069826,91.9972942 22.0142511,91.9886357 22.1159697,92.0146113 Z M29.4999561,116.642917 C29.22398,116.642917 28.9999766,116.883424 28.9999766,117.178612 C28.9999766,117.473801 29.22398,117.714308 29.4999561,117.714308 C29.7759321,117.714308 29.9999355,117.473738 29.9999355,117.178612 C29.9999355,116.883424 29.7759321,116.642917 29.4999561,116.642917 Z M12.5000674,105.392866 C12.7453794,105.392866 12.9496267,105.582499 12.9919864,105.832313 L13.0000469,105.928561 L13.0000469,109.567124 C13.2825538,110.224959 15.2151624,114.113791 21.1465167,114.463245 L21.5000498,114.479667 L21.5000498,109.678557 C21.5000498,109.382867 21.7240533,109.142862 22.0000293,109.142862 C22.2453413,109.142862 22.4495886,109.332495 22.4919483,109.582309 L22.5000088,109.678557 L22.5000088,114.484501 C24.7429732,114.404646 26.3289857,113.819669 27.2784955,113.316618 C27.5269912,113.185346 27.8259945,113.294645 27.9479864,113.559825 C28.0709745,113.825005 27.9694317,114.14587 27.7215806,114.277079 C26.6066023,114.867455 24.7085787,115.571399 22.0000879,115.571399 C14.2506108,115.571399 12.1226072,110.109788 12.0355956,109.877819 C12.0199316,109.835338 12.0093717,109.791183 12.0040723,109.746303 L12.0000879,109.678557 L12.0000879,105.928561 C12.0000879,105.632871 12.2240914,105.392866 12.5000674,105.392866 Z M7.50003809,100.035657 C7.74535011,100.035657 7.94959739,100.22529 7.99195714,100.475104 L8.00001758,100.571352 L8.00001758,100.749206 L21.9999707,106.956007 L27.3080267,104.602097 C27.5624989,104.490099 27.8559944,104.618671 27.9615216,104.892452 C28.0552714,105.13531 27.9700864,105.409914 27.7709046,105.547349 L27.6909947,105.592127 L22.190986,108.030726 C22.12999,108.058035 22.064951,108.071407 21.9999707,108.071407 C21.9566505,108.071407 21.9133042,108.065436 21.8711645,108.053364 L21.809014,108.030664 L7.30902283,101.602063 C7.14871065,101.531355 7.03618217,101.37758 7.00730285,101.198455 L7,101.107048 L7,100.571352 C7,100.275662 7.22406206,100.035657 7.50003809,100.035657 Z M21.9999707,98.4285064 C21.389425,98.4285064 20.9999531,98.7456047 20.9999531,98.9642022 C20.9999531,99.1827369 21.3894836,99.499898 21.9999707,99.499898 C22.6104578,99.499898 22.9999883,99.1827997 22.9999883,98.9642022 C22.9999883,98.7456674 22.6105164,98.4285064 21.9999707,98.4285064 Z" id="Combined-Shape"></path>
            </g>
        </g>
    </g>
</svg>