<?xml version="1.0" encoding="UTF-8"?>
<svg width="24px" height="24px" viewBox="0 0 24 24" version="1.1" xmlns="http://www.w3.org/2000/svg" xmlns:xlink="http://www.w3.org/1999/xlink">
    <!-- Generator: Sketch 58 (84663) - https://sketch.com -->
    <title>Shape</title>
    <desc>Created with Sketch.</desc>
    <g id="Page-2" stroke="none" stroke-width="1" fill="none" fill-rule="evenodd">
        <g id="2.1-" transform="translate(-23.000000, -129.000000)" fill="#227C9E" fill-rule="nonzero">
            <g id="Group-9" transform="translate(13.000000, 119.000000)">
                <path d="M33.7733707,21.4120117 L22.9880229,10.778422 L22.3894582,10.1717381 C22.1636453,9.94275397 21.8361631,9.94275397 21.6104037,10.1717381 L18.4981457,13.3263767 L18.4981457,11.9925735 C18.4981457,11.5814993 18.2250298,11.2482117 17.8883438,11.2482117 L15.5633808,11.2482117 C15.2266413,11.2482117 14.953579,11.5815646 14.953579,11.9925735 L14.953579,16.9061969 L10.2242973,21.6156548 C9.96343528,21.8755315 9.92437286,22.3443416 10.1373433,22.6629339 C10.2579552,22.8434565 10.433308,22.9367874 10.6101591,22.9367874 C10.7457003,22.9367874 10.8820977,22.88186 10.9955928,22.769262 L12.8404627,20.9322945 L12.8404627,33.2556383 C12.8404627,33.6667125 13.1134715,34 13.4502645,34 L19.9672137,34 C20.3040601,34 20.5771225,33.6666472 20.5771225,33.2556383 L20.5771225,27.4803526 L23.4227929,27.4803526 L23.4227929,33.2556383 C23.4227929,33.6667125 23.6959088,34 24.0327018,34 L30.5496509,34 C30.8864974,34 31.1595063,33.6666472 31.1595063,33.2556383 L31.1595063,20.7489635 L33.0067306,22.5701254 C33.11953,22.6812866 33.2551783,22.7354956 33.3897563,22.7354956 C33.5674636,22.7354956 33.7441006,22.640989 33.8643915,22.458899 C34.0762382,22.1390004 34.0353564,21.670321 33.7733707,21.4120117 Z M16.1732896,12.7369352 L17.2783815,12.7369352 L17.2783815,14.5110724 L16.1732896,15.6028291 L16.1732896,12.7369352 Z M29.9398491,19.7599427 L29.9398491,32.5111459 L24.6426641,32.5111459 L24.6426641,26.735795 C24.6426641,26.3247208 24.3695482,25.9914985 24.0328088,25.9914985 L19.9672672,25.9914985 C19.6304207,25.9914985 19.3574654,26.3248514 19.3574654,26.735795 L19.3574654,32.5111459 L14.0602268,32.5111459 L14.0602268,19.7599427 L16.4312086,17.356589 C16.4312086,17.356589 21.982781,11.8044747 22.0182047,11.7305414 L29.9398491,19.7599427 Z" id="Shape"></path>
            </g>
        </g>
    </g>
</svg>