<svg xmlns="http://www.w3.org/2000/svg" width="30" height="27.65" viewBox="0 0 30 27.65">
  <g id="Group_138" data-name="Group 138" transform="translate(-945 -118.132)">
    <g id="_001-audio" data-name="001-audio" transform="translate(945 98.08)">
      <g id="Group_130" data-name="Group 130" transform="translate(19.769 20.052)">
        <g id="Group_129" data-name="Group 129">
          <path id="Path_4" data-name="Path 4" d="M338.629,20.126a.879.879,0,1,0-.7,1.611,13.248,13.248,0,0,1,0,24.281.879.879,0,1,0,.7,1.611,15.006,15.006,0,0,0,0-27.5Z" transform="translate(-337.397 -20.052)" fill="#b6b6b6"/>
        </g>
      </g>
      <g id="Group_132" data-name="Group 132" transform="translate(19.77 26.684)">
        <g id="Group_131" data-name="Group 131">
          <path id="Path_5" data-name="Path 5" d="M338.873,133.453a.879.879,0,0,0-1.172,1.31,7.594,7.594,0,0,1,0,11.32.879.879,0,0,0,1.172,1.31,9.352,9.352,0,0,0,0-13.939Z" transform="translate(-337.408 -133.229)" fill="#b6b6b6"/>
        </g>
      </g>
      <g id="Group_134" data-name="Group 134" transform="translate(0 22.172)">
        <g id="Group_133" data-name="Group 133">
          <path id="Path_6" data-name="Path 6" d="M15.4,56.327a.879.879,0,0,0-.917.075L7.652,61.41H.879A.879.879,0,0,0,0,62.289v11.3a.879.879,0,0,0,.879.879H7.652l6.829,5.008a.879.879,0,0,0,1.4-.709V57.111A.879.879,0,0,0,15.4,56.327Zm-1.276,20.7L8.459,72.877a.879.879,0,0,0-.52-.17H1.758V63.168H7.939a.879.879,0,0,0,.52-.17l5.662-4.152Z" transform="translate(0 -56.232)" fill="#b6b6b6"/>
        </g>
      </g>
    </g>
  </g>
</svg>
