<?xml version="1.0" encoding="UTF-8"?>
<svg width="30px" height="30px" viewBox="0 0 30 30" version="1.1" xmlns="http://www.w3.org/2000/svg" xmlns:xlink="http://www.w3.org/1999/xlink">
    <!-- Generator: Sketch 58 (84663) - https://sketch.com -->
    <title>Combined Shape Copy</title>
    <desc>Created with Sketch.</desc>
    <g id="Page-2" stroke="none" stroke-width="1" fill="none" fill-rule="evenodd">
        <g id="2.1-" transform="translate(-20.000000, -371.000000)" fill="#C2C2C2" fill-rule="nonzero">
            <g id="Group-9" transform="translate(13.000000, 119.000000)">
                <path d="M22.0020305,252 C29.7511261,252.002442 36.2231935,257.906317 36.9356923,265.622693 C37.6481911,273.33907 32.3664704,280.328053 24.7489843,281.749632 L24.7489843,281.749632 L24.5914923,281.777468 C24.1817689,281.849011 23.7688712,281.906147 23.3523108,281.943506 C22.9042522,281.983794 22.4539959,282.004061 22.0020305,282.004061 C13.7167294,282.004061 7,275.287332 7,267.00203 C7,258.716729 13.7167294,252 22.0020305,252 Z M25.5025042,268.002166 L18.5015567,268.002166 C15.4650129,268.005828 13.0044748,270.466367 13.0008122,273.50291 L13.0008122,273.50291 L13.0008122,277.719057 L13.0762618,277.784984 C13.3504689,278.012554 13.6320011,278.230113 13.9208586,278.434974 C13.965054,278.465984 14.009982,278.496018 14.0544216,278.527028 C14.3484067,278.729692 14.6480078,278.921612 14.9546899,279.100592 C14.9986412,279.125253 15.0430808,279.150159 15.087032,279.175065 C15.3985977,279.352823 15.7162676,279.521791 16.0402861,279.671714 C16.0813072,279.691248 16.1223284,279.708828 16.1633496,279.727141 C16.4937166,279.879262 16.8292112,280.019906 17.1708102,280.145411 C17.2069478,280.15884 17.2433298,280.170317 17.2794675,280.183258 C17.6279033,280.308275 17.9814668,280.420839 18.3389371,280.517776 L18.3389371,280.517776 L18.4275721,280.540484 C18.7940768,280.637421 19.164244,280.72044 19.5383181,280.787344 C19.5598054,280.791494 19.581781,280.793936 19.6037566,280.797843 C19.9863768,280.864502 20.3724154,280.916511 20.761384,280.95094 L20.761384,280.95094 L20.7967892,280.95094 C21.1960132,280.985368 21.5993881,281.000507 22.0044722,281.000507 C22.4095563,281.000507 22.809757,280.98195 23.2097134,280.947521 L23.2097134,280.947521 L23.2451186,280.947521 C23.6343315,280.912849 24.0208584,280.86084 24.4039669,280.793936 C24.4254542,280.790518 24.4469414,280.787832 24.4684287,280.783925 C24.8429912,280.716777 25.2134026,280.63327 25.5803957,280.536333 L25.5803957,280.536333 L25.6665889,280.514846 C26.0260126,280.41742 26.3810411,280.30388 26.7311862,280.178374 C26.7626845,280.16641 26.7971131,280.155422 26.8312973,280.142725 C27.1753381,280.016243 27.5137628,279.874867 27.8468157,279.721281 L27.8468157,279.721281 L27.9603564,279.671226 C28.2882817,279.518129 28.6098584,279.348184 28.9260633,279.168228 C28.9648869,279.145764 29.0049314,279.124277 29.0439992,279.101568 C29.3560532,278.918927 29.6607819,278.724564 29.9581854,278.517993 C29.9970091,278.491134 30.0365652,278.465008 30.0756329,278.43766 C30.3703506,278.229136 30.6572547,278.008403 30.9368335,277.774973 L30.9368335,277.774973 L31.0032487,277.719545 L31.0032487,273.50291 C30.9995861,270.466367 28.539048,268.005828 25.5025042,268.002166 L25.5025042,268.002166 Z M31.8690886,257.058058 C26.4088769,251.63496 17.595184,251.63496 12.1349724,257.058058 C6.67476067,262.481399 6.61469398,271.294848 12.0006768,276.79193 L12.0006768,276.79193 L12.0006768,273.50291 C12.0048278,269.91429 14.9129362,267.006181 18.5015567,267.00203 L18.5015567,267.00203 L25.5025042,267.00203 C29.0911247,267.006181 31.9992332,269.91429 32.0033841,273.50291 L32.0033841,273.50291 L32.0033841,276.79193 C37.389367,271.294848 37.3293003,262.481399 31.8690886,257.058058 Z M22.0020305,256.000541 C24.762658,256.003472 26.9997772,258.240591 27.0027073,261.001218 C27.0027073,263.763067 24.7638789,266.001895 22.0020305,266.001895 C19.240182,266.001895 17.0013536,263.763067 17.0013536,261.001218 C17.0013536,258.23937 19.240182,256.000541 22.0020305,256.000541 Z M22.0020305,257.000677 C19.7925029,257.000677 18.001489,258.791691 18.001489,261.001218 C18.001489,263.210746 19.7925029,265.00176 22.0020305,265.00176 C24.2103372,264.999318 26.0001302,263.209525 26.0025719,261.001218 C26.0025719,258.791691 24.211558,257.000677 22.0020305,257.000677 Z" id="Combined-Shape-Copy"></path>
            </g>
        </g>
    </g>
</svg>