<svg xmlns="http://www.w3.org/2000/svg" width="73.002" height="73" viewBox="0 0 73.002 73">
  <g id="Сгруппировать_319" data-name="Сгруппировать 319" transform="translate(-1965 -2369.5)">
    <path id="Контур_177" data-name="Контур 177" d="M120.09,49.144,99.077,31.512c-.967-.811-2.239.287-3.051,1.254L57.654,77.322a2.286,2.286,0,0,0,.282,3.22L78.949,98.175a2.286,2.286,0,0,0,3.22-.282l38.2-45.529a2.286,2.286,0,0,0-.282-3.22Z" transform="translate(1916.025 2342.722)" fill="#eceaec"/>
    <path id="Контур_178" data-name="Контур 178" d="M75.5,93.764H79.76a5.721,5.721,0,0,0,5.715-5.715V50.063a5.724,5.724,0,0,1,1.337-3.673l13.14-15.66L99.077,30a2.286,2.286,0,0,0-3.22.282l-38.2,45.528a2.286,2.286,0,0,0,.282,3.22Z" transform="translate(1916.026 2344.239)" fill="#dad8db"/>
    <path id="Контур_179" data-name="Контур 179" d="M37.217,7.506H9.786A2.286,2.286,0,0,0,7.5,9.792V69.225a2.286,2.286,0,0,0,2.286,2.286H37.217A2.286,2.286,0,0,0,39.5,69.225V9.792a2.286,2.286,0,0,0-2.286-2.286Z" transform="translate(1958.569 2363.063)" fill="#eae89e"/>
    <g id="Сгруппировать_312" data-name="Сгруппировать 312" transform="translate(1970.641 2375.141)">
      <circle id="Эллипс_23" data-name="Эллипс 23" cx="2.286" cy="2.286" r="2.286" transform="translate(9.144 41.146)" fill="#fff"/>
      <circle id="Эллипс_24" data-name="Эллипс 24" cx="2.286" cy="2.286" r="2.286" transform="translate(0 50.29)" fill="#fff"/>
      <circle id="Эллипс_26" data-name="Эллипс 26" cx="2.286" cy="2.286" r="2.286" transform="translate(18.287)" fill="#fff"/>
      <circle id="Эллипс_27" data-name="Эллипс 27" cx="2.286" cy="2.286" r="2.286" transform="translate(0 18.287)" fill="#fff"/>
      <circle id="Эллипс_29" data-name="Эллипс 29" cx="2.286" cy="2.286" r="2.286" transform="translate(18.287 32.003)" fill="#fff"/>
      <circle id="Эллипс_33" data-name="Эллипс 33" cx="2.286" cy="2.286" r="2.286" transform="translate(9.144 9.146)" fill="#fff"/>
      <circle id="Эллипс_34" data-name="Эллипс 34" cx="2.286" cy="2.286" r="2.286" transform="translate(0.144 0.146)" fill="#fff"/>
      <circle id="Эллипс_35" data-name="Эллипс 35" cx="2.286" cy="2.286" r="2.286" transform="translate(18.144 18.146)" fill="#fff"/>
      <circle id="Эллипс_36" data-name="Эллипс 36" cx="2.286" cy="2.286" r="2.286" transform="translate(0.144 32.146)" fill="#fff"/>
      <circle id="Эллипс_37" data-name="Эллипс 37" cx="2.286" cy="2.286" r="2.286" transform="translate(18.144 50.146)" fill="#fff"/>
    </g>
    <path id="Контур_180" data-name="Контур 180" d="M10.929,64.653V7.506H9.786A2.286,2.286,0,0,0,7.5,9.792V69.225a2.286,2.286,0,0,0,2.286,2.286H37.217A2.286,2.286,0,0,0,39.5,69.225V68.082H14.358a3.433,3.433,0,0,1-3.429-3.429Z" transform="translate(1958.569 2363.063)" fill="#c6c58c"/>
    <path id="Контур_181" data-name="Контур 181" d="M55.992,224.458H33.133a1.069,1.069,0,1,0,0,2.139H55.992a1.069,1.069,0,1,0,0-2.139Z" transform="translate(1937.508 2177.045)"/>
    <path id="Контур_182" data-name="Контур 182" d="M96.193,324.006a3.355,3.355,0,1,0,3.355-3.355A3.359,3.359,0,0,0,96.193,324.006Zm4.572,0a1.217,1.217,0,1,1-1.217-1.217A1.218,1.218,0,0,1,100.765,324.006Z" transform="translate(1882.522 2094.567)"/>
    <path id="Контур_183" data-name="Контур 183" d="M32.064,388.136a3.355,3.355,0,1,0,3.355-3.355A3.359,3.359,0,0,0,32.064,388.136Zm4.572,0a1.216,1.216,0,1,1-1.216-1.216A1.218,1.218,0,0,1,36.636,388.136Z" transform="translate(1937.508 2039.581)"/>
    <path id="Контур_185" data-name="Контур 185" d="M163.678,32.071a3.355,3.355,0,1,0,3.355,3.355A3.359,3.359,0,0,0,163.678,32.071Zm0,4.572a1.217,1.217,0,1,1,1.216-1.216A1.218,1.218,0,0,1,163.678,36.643Z" transform="translate(1827.536 2342.001)"/>
    <path id="Контур_186" data-name="Контур 186" d="M35.42,167.039a3.355,3.355,0,1,0-3.355-3.355A3.359,3.359,0,0,0,35.42,167.039Zm0-4.572a1.217,1.217,0,1,1-1.217,1.217A1.218,1.218,0,0,1,35.42,162.468Z" transform="translate(1937.507 2232.03)"/>
    <path id="Контур_188" data-name="Контур 188" d="M163.678,256.522a3.355,3.355,0,1,0,3.355,3.355A3.359,3.359,0,0,0,163.678,256.522Zm0,4.572a1.217,1.217,0,1,1,1.216-1.216A1.218,1.218,0,0,1,163.678,261.094Z" transform="translate(1827.536 2149.552)"/>
    <path id="Контур_189" data-name="Контур 189" d="M72.989,23.831A3.333,3.333,0,0,0,71.8,21.553L50.79,3.921a3.355,3.355,0,0,0-4.727.413L36.825,15.344a1.069,1.069,0,0,0,1.638,1.375L47.7,5.71a1.217,1.217,0,0,1,1.714-.15L70.428,23.192a1.217,1.217,0,0,1,.15,1.714l-38.2,45.529a1.218,1.218,0,0,1-1.714.15L25.377,66.15h5.409a3.359,3.359,0,0,0,3.355-3.355V60.509a1.069,1.069,0,1,0-2.139,0v2.286a1.218,1.218,0,0,1-1.217,1.216H3.355a1.218,1.218,0,0,1-1.217-1.216V3.361A1.218,1.218,0,0,1,3.355,2.145H30.786A1.218,1.218,0,0,1,32,3.361V55.937a1.069,1.069,0,1,0,2.139,0V34.52L48.106,46.238A1.069,1.069,0,1,0,49.481,44.6L34.141,31.728V3.361A3.359,3.359,0,0,0,30.786.006H3.355A3.359,3.359,0,0,0,0,3.361V62.795A3.359,3.359,0,0,0,3.355,66.15H22.049l7.237,6.073a3.359,3.359,0,0,0,4.727-.414l38.2-45.529a3.332,3.332,0,0,0,.772-2.449Z" transform="translate(1965 2369.494)"/>
    <path id="Контур_193" data-name="Контур 193" d="M163.678,160.329a3.355,3.355,0,1,0,3.355,3.355A3.359,3.359,0,0,0,163.678,160.329Zm0,4.572a1.217,1.217,0,1,1,1.216-1.217A1.218,1.218,0,0,1,163.678,164.9Z" transform="translate(1818.536 2223.03)"/>
    <g id="Сгруппировать_318" data-name="Сгруппировать 318" transform="matrix(0.755, 0.656, -0.656, 0.755, 2014.441, 2379.371)">
      <circle id="Эллипс_26-2" data-name="Эллипс 26" cx="2.286" cy="2.286" r="2.286" transform="translate(18.287)" fill="#fff" stroke="#000" stroke-width="2"/>
      <circle id="Эллипс_27-2" data-name="Эллипс 27" cx="2.286" cy="2.286" r="2.286" transform="translate(0 18.287)" fill="#fff" stroke="#000" stroke-width="2"/>
    </g>
    <path id="Контур_194" data-name="Контур 194" d="M163.678,160.329a3.355,3.355,0,1,0,3.355,3.355A3.359,3.359,0,0,0,163.678,160.329Zm0,4.572a1.217,1.217,0,1,1,1.216-1.217A1.218,1.218,0,0,1,163.678,164.9Z" transform="translate(1827.536 2232.03)"/>
    <path id="Контур_195" data-name="Контур 195" d="M163.678,160.329a3.355,3.355,0,1,0,3.355,3.355A3.359,3.359,0,0,0,163.678,160.329Zm0,4.572a1.217,1.217,0,1,1,1.216-1.217A1.218,1.218,0,0,1,163.678,164.9Z" transform="translate(1809.536 2214.03)"/>
    <path id="Контур_196" data-name="Контур 196" d="M163.678,160.329a3.355,3.355,0,1,0,3.355,3.355A3.359,3.359,0,0,0,163.678,160.329Zm0,4.572a1.217,1.217,0,1,1,1.216-1.217A1.218,1.218,0,0,1,163.678,164.9Z" transform="translate(1809.536 2246.03)"/>
    <path id="Контур_197" data-name="Контур 197" d="M163.678,160.329a3.355,3.355,0,1,0,3.355,3.355A3.359,3.359,0,0,0,163.678,160.329Zm0,4.572a1.217,1.217,0,1,1,1.216-1.217A1.218,1.218,0,0,1,163.678,164.9Z" transform="translate(1827.536 2264.03)"/>
  </g>
</svg>
