<svg xmlns="http://www.w3.org/2000/svg" width="12.5" height="12.5" viewBox="0 0 12.5 12.5">
  <g id="Сгруппировать_125" data-name="Сгруппировать 125" transform="translate(-678.875 -1067)">
    <path id="Icon_awesome-question-circle" data-name="Icon awesome-question-circle" d="M13.063,6.812A6.25,6.25,0,1,1,6.812.563,6.25,6.25,0,0,1,13.063,6.812ZM6.98,2.629A3.264,3.264,0,0,0,4.043,4.236a.3.3,0,0,0,.068.41l.874.663a.3.3,0,0,0,.42-.053c.45-.571.759-.9,1.444-.9.515,0,1.152.331,1.152.831,0,.377-.312.571-.82.856C6.589,6.372,5.8,6.786,5.8,7.821v.1a.3.3,0,0,0,.3.3H7.518a.3.3,0,0,0,.3-.3V7.888c0-.717,2.1-.747,2.1-2.688A2.875,2.875,0,0,0,6.98,2.629Zm-.168,6.25a1.159,1.159,0,1,0,1.159,1.159A1.161,1.161,0,0,0,6.812,8.879Z" transform="translate(678.313 1066.438)" fill="#617d8c"/>
  </g>
</svg>
