<?xml version="1.0" encoding="utf-8"?>
<!-- Generator: Adobe Illustrator 23.0.2, SVG Export Plug-In . SVG Version: 6.00 Build 0)  -->
<svg version="1.1" id="Layer_4" xmlns="http://www.w3.org/2000/svg" xmlns:xlink="http://www.w3.org/1999/xlink" x="0px" y="0px"
	 viewBox="0 0 50 50" style="enable-background:new 0 0 50 50;" xml:space="preserve">
<style type="text/css">
	.st0{fill:none;stroke:#FBB03B;stroke-width:2;stroke-linecap:round;stroke-linejoin:round;stroke-miterlimit:10;}
</style>
<g>
	<g>
		<g>
			<path class="st0" d="M14.2,45.3v2.9h5.7v-2.9"/>
			<path class="st0" d="M19.8,20.7v-2.9h-5.7v2.9"/>
			<polyline class="st0" points="4.7,30.2 1.8,30.2 1.8,35.8 4.7,35.8 			"/>
			<path class="st0" d="M29.3,35.8h2.9v-5.7h-2.9"/>
			<path class="st0" d="M10.3,22.3l-2-2l-4,4l2,2"/>
			<path class="st0" d="M10.3,22.3"/>
			<path class="st0" d="M6.3,26.3"/>
			<path class="st0" d="M23.7,43.7l2,2l4-4l-2-2"/>
			<path class="st0" d="M27.7,26.3l2-2l-4-4l-2,2"/>
			<path class="st0" d="M6.3,39.7l-2,2l4,4l2-2"/>
		</g>
		<line class="st0" x1="4.7" y1="30.2" x2="6.3" y2="26.3"/>
		<line class="st0" x1="10.3" y1="22.3" x2="14.2" y2="20.7"/>
		<line class="st0" x1="19.9" y1="20.7" x2="23.7" y2="22.3"/>
		<line class="st0" x1="27.7" y1="26.3" x2="29.3" y2="30.2"/>
		<line class="st0" x1="29.3" y1="35.9" x2="27.7" y2="39.6"/>
		<line class="st0" x1="23.7" y1="43.7" x2="19.9" y2="45.3"/>
		<line class="st0" x1="14.1" y1="45.3" x2="10.3" y2="43.7"/>
		<line class="st0" x1="6.3" y1="39.6" x2="4.7" y2="35.8"/>
	</g>
	<circle class="st0" cx="17" cy="33" r="6.4"/>
</g>
<g>
	<g>
		<g>
			<path class="st0" d="M30.9,6.3V2.4h-7.7v3.9"/>
			<path class="st0" d="M43.7,26.9h3.9v-7.7h-3.9"/>
			<path class="st0" d="M17.9,8.5l-2.7-2.7l-5.4,5.4l2.7,2.7"/>
			<path class="st0" d="M17.9,8.5"/>
			<path class="st0" d="M36.1,37.5l2.7,2.7l5.4-5.4l-2.7-2.7"/>
			<path class="st0" d="M41.5,13.9l2.7-2.7l-5.4-5.4l-2.7,2.7"/>
		</g>
		<line class="st0" x1="17.9" y1="8.5" x2="23.1" y2="6.4"/>
		<line class="st0" x1="30.9" y1="6.4" x2="36.1" y2="8.5"/>
		<line class="st0" x1="41.5" y1="13.9" x2="43.7" y2="19.2"/>
		<line class="st0" x1="43.6" y1="26.9" x2="41.5" y2="32"/>
	</g>
	<path class="st0" d="M21.8,16.1c1.4-1.1,3.3-1.7,5.2-1.7c4.8,0,8.7,3.9,8.7,8.7c0,0.7-0.1,1.4-0.2,2"/>
</g>
</svg>
