<svg xmlns="http://www.w3.org/2000/svg" width="16" height="15.684" viewBox="0 0 16 15.684">
  <g id="_001-setting-lines" data-name="001-setting-lines" transform="translate(0 -4.503)">
    <path id="Контур_30" data-name="Контур 30" d="M3.419,53.528H.471a.471.471,0,0,1,0-.941H3.419a.471.471,0,0,1,0,.941Z" transform="translate(0 -46.399)" fill="#607d8b"/>
    <path id="Контур_31" data-name="Контур 31" d="M86.292,8.814a2.156,2.156,0,1,1,2.156-2.155A2.158,2.158,0,0,1,86.292,8.814Zm0-3.37a1.214,1.214,0,1,0,1.214,1.214A1.216,1.216,0,0,0,86.292,5.444Z" transform="translate(-81.187)" fill="#607d8b"/>
    <path id="Контур_32" data-name="Контур 32" d="M236.509,53.528h-7.033a.471.471,0,1,1,0-.941h7.033a.471.471,0,0,1,0,.941Z" transform="translate(-220.98 -46.399)" fill="#607d8b"/>
    <path id="Контур_33" data-name="Контур 33" d="M266.585,171.085a2.155,2.155,0,1,1,2.156-2.155A2.158,2.158,0,0,1,266.585,171.085Zm0-3.37a1.214,1.214,0,1,0,1.214,1.214A1.216,1.216,0,0,0,266.585,167.715Z" transform="translate(-255.162 -156.584)" fill="#607d8b"/>
    <path id="Контур_34" data-name="Контур 34" d="M8.031,215.791H.471a.471.471,0,1,1,0-.941h7.56a.471.471,0,1,1,0,.941Z" transform="translate(0 -202.975)" fill="#607d8b"/>
    <path id="Контур_35" data-name="Контур 35" d="M363.48,215.791h-2.422a.471.471,0,0,1,0-.941h2.422a.471.471,0,0,1,0,.941Z" transform="translate(-347.95 -202.975)" fill="#607d8b"/>
    <path id="Контур_36" data-name="Контур 36" d="M71.269,333.348a2.156,2.156,0,1,1,2.156-2.156A2.158,2.158,0,0,1,71.269,333.348Zm0-3.37a1.214,1.214,0,1,0,1.214,1.214A1.216,1.216,0,0,0,71.269,329.978Z" transform="translate(-66.691 -313.161)" fill="#607d8b"/>
    <path id="Контур_37" data-name="Контур 37" d="M222.01,378.055h-7.56a.471.471,0,0,1,0-.941h7.56a.471.471,0,0,1,0,.941Z" transform="translate(-206.48 -359.553)" fill="#607d8b"/>
    <path id="Контур_38" data-name="Контур 38" d="M2.893,378.054H.471a.471.471,0,0,1,0-.941H2.893a.471.471,0,0,1,0,.941Z" transform="translate(0 -359.552)" fill="#607d8b"/>
  </g>
</svg>
