<svg xmlns="http://www.w3.org/2000/svg" width="18" height="22.5" viewBox="0 0 18 22.5">
  <g id="Сгруппировать_268" data-name="Сгруппировать 268" transform="translate(-169.5 -451)">
    <g id="_001-bar-chart" data-name="001-bar-chart" transform="translate(168.997 451)">
      <g id="Сгруппировать_152" data-name="Сгруппировать 152" transform="translate(2.003 0)">
        <g id="Сгруппировать_151" data-name="Сгруппировать 151" transform="translate(0 0)">
          <path id="Контур_26" data-name="Контур 26" d="M146.087,218.936h-2.973a.45.45,0,0,0-.45.45v5.833a.45.45,0,0,0,.45.45h2.973a.45.45,0,0,0,.45-.45v-5.833A.45.45,0,0,0,146.087,218.936Zm-.45,5.833h-2.072v-4.932h2.072Z" transform="translate(-136.6 -209.498)" fill="#607d8b"/>
          <path id="Контур_27" data-name="Контур 27" d="M282.469,136.911h-3a.45.45,0,0,0-.45.45v9.37a.45.45,0,0,0,.45.45h3a.45.45,0,0,0,.45-.45v-9.37A.45.45,0,0,0,282.469,136.911Zm-.45,9.37h-2.095v-8.469h2.095Z" transform="translate(-267.081 -131.009)" fill="#607d8b"/>
          <path id="Контур_28" data-name="Контур 28" d="M9.228,269.613h-3a.45.45,0,0,0-.45.45v3.649a.45.45,0,0,0,.45.45h3a.45.45,0,0,0,.45-.45v-3.649A.45.45,0,0,0,9.228,269.613Zm-.45,3.649H6.683v-2.748H8.778v2.748Z" transform="translate(-5.619 -257.99)" fill="#607d8b"/>
          <path id="Контур_29" data-name="Контур 29" d="M17.887.452a.383.383,0,0,0-.293-.158L13.495,0a.452.452,0,1,0-.068.9l2.9.2L10.995,5.272l-4.077-3.2a.45.45,0,0,0-.586.023L2.143,6.105a.45.45,0,0,0-.023.631.405.405,0,0,0,.338.158.45.45,0,0,0,.315-.135l3.9-3.739L10.7,6.2a.45.45,0,0,0,.563,0l5.766-4.487-.225,2.8a.473.473,0,0,0,.428.473h.023a.45.45,0,0,0,.45-.405L18,.767A.36.36,0,0,0,17.887.452Z" transform="translate(-2.003 0)" fill="#607d8b"/>
        </g>
      </g>
    </g>
    <line id="Линия_179" data-name="Линия 179" x2="16" transform="translate(170.5 472.5)" fill="none" stroke="#607d8b" stroke-linecap="round" stroke-width="2"/>
  </g>
</svg>
