<?xml version="1.0" encoding="utf-8"?>
<!-- Generator: Adobe Illustrator 23.0.2, SVG Export Plug-In . SVG Version: 6.00 Build 0)  -->
<svg version="1.1" id="Layer_1" xmlns="http://www.w3.org/2000/svg" xmlns:xlink="http://www.w3.org/1999/xlink" x="0px" y="0px"
	 viewBox="0 0 1200 650" style="enable-background:new 0 0 1200 650;" xml:space="preserve">
<style type="text/css">
	.st0{fill:#FFFFFF;}
</style>
<g>
	<path class="st0" d="M585,650H15c-8.3,0-15-6.7-15-15V15C0,6.7,6.7,0,15,0h570c8.3,0,15,6.7,15,15v620C600,643.3,593.3,650,585,650
		z"/>
</g>
<g>
	<path class="st0" d="M1185,650H615c-8.3,0-15-6.7-15-15V15c0-8.3,6.7-15,15-15h570c8.3,0,15,6.7,15,15v620
		C1200,643.3,1193.3,650,1185,650z"/>
</g>
</svg>
