<?xml version="1.0" encoding="utf-8"?>
<!-- Generator: Adobe Illustrator 23.0.2, SVG Export Plug-In . SVG Version: 6.00 Build 0)  -->
<svg version="1.1" id="Layer_1" xmlns="http://www.w3.org/2000/svg" xmlns:xlink="http://www.w3.org/1999/xlink" x="0px" y="0px"
	 viewBox="0 0 1000 650" style="enable-background:new 0 0 1000 650;" xml:space="preserve">
<style type="text/css">
	.st0{fill:#FFFFFF;}
</style>
<g>
	<g>
		<path class="st0" d="M486.3,650H13.7C6.1,650,0,643.9,0,636.3V13.7C0,6.1,6.1,0,13.7,0h472.6c7.6,0,13.7,6.1,13.7,13.7v622.6
			C500,643.9,493.9,650,486.3,650z"/>
	</g>
	<g>
		<path class="st0" d="M986.3,650H513.7c-7.6,0-13.7-6.1-13.7-13.7V13.7C500,6.1,506.1,0,513.7,0h472.6c7.6,0,13.7,6.1,13.7,13.7
			v622.6C1000,643.9,993.9,650,986.3,650z"/>
	</g>
</g>
</svg>
